<mxfile host="app.diagrams.net" agent="Mozilla/5.0 (Windows NT 10.0; Win64; x64) AppleWebKit/537.36 (KHTML, like Gecko) Chrome/109.0.0.0 Safari/537.36" version="26.2.8">
  <diagram name="第 1 页" id="Q7bsDSj4xhXIVwD-Ch1r">
    <mxGraphModel dx="3423" dy="2553" grid="1" gridSize="10" guides="1" tooltips="1" connect="1" arrows="1" fold="1" page="1" pageScale="1" pageWidth="827" pageHeight="1169" math="0" shadow="0">
      <root>
        <mxCell id="0" />
        <mxCell id="1" parent="0" />
        <mxCell id="YG4ow8o5gnvYlA8YRpoR-77" value="" style="rounded=0;whiteSpace=wrap;html=1;fontFamily=Helvetica;fontSize=11;fontColor=default;labelBackgroundColor=default;fillColor=none;strokeColor=default;dashed=1;" vertex="1" parent="1">
          <mxGeometry x="-360" y="-85" width="530" height="725" as="geometry" />
        </mxCell>
        <mxCell id="S3rH2LV8QHZ5XTYs6tV--204" style="edgeStyle=none;shape=connector;rounded=0;orthogonalLoop=1;jettySize=auto;html=1;entryX=0.996;entryY=0.436;entryDx=0;entryDy=0;strokeColor=default;align=center;verticalAlign=middle;fontFamily=Helvetica;fontSize=11;fontColor=default;labelBackgroundColor=default;endArrow=classic;exitX=0.003;exitY=0.42;exitDx=0;exitDy=0;strokeWidth=3;exitPerimeter=0;entryPerimeter=0;" parent="1" source="S3rH2LV8QHZ5XTYs6tV--8" target="S3rH2LV8QHZ5XTYs6tV--144" edge="1">
          <mxGeometry relative="1" as="geometry" />
        </mxCell>
        <mxCell id="-kdukgbmFTFrDUBq5qtz-3" style="rounded=0;orthogonalLoop=1;jettySize=auto;html=1;exitX=1;exitY=0.5;exitDx=0;exitDy=0;entryX=0;entryY=0.5;entryDx=0;entryDy=0;strokeWidth=3;fillColor=#e1d5e7;strokeColor=#9673a6;" parent="1" source="S3rH2LV8QHZ5XTYs6tV--8" target="S3rH2LV8QHZ5XTYs6tV--145" edge="1">
          <mxGeometry relative="1" as="geometry" />
        </mxCell>
        <mxCell id="S3rH2LV8QHZ5XTYs6tV--8" value="" style="rounded=0;whiteSpace=wrap;html=1;fontFamily=Helvetica;fontSize=11;fontColor=default;labelBackgroundColor=default;fillColor=none;strokeColor=default;dashed=1;" parent="1" vertex="1">
          <mxGeometry x="350" y="291.91" width="320" height="278.09" as="geometry" />
        </mxCell>
        <mxCell id="S3rH2LV8QHZ5XTYs6tV--199" style="edgeStyle=none;rounded=0;orthogonalLoop=1;jettySize=auto;html=1;exitX=1;exitY=0.131;exitDx=0;exitDy=0;entryX=0;entryY=0.25;entryDx=0;entryDy=0;strokeColor=#006EAF;align=center;verticalAlign=middle;fontFamily=Helvetica;fontSize=11;fontColor=default;labelBackgroundColor=default;endArrow=classic;strokeWidth=3;fillColor=#1ba1e2;exitPerimeter=0;" parent="1" source="S3rH2LV8QHZ5XTYs6tV--144" target="S3rH2LV8QHZ5XTYs6tV--1" edge="1">
          <mxGeometry relative="1" as="geometry" />
        </mxCell>
        <mxCell id="S3rH2LV8QHZ5XTYs6tV--14" value="" style="ellipse;whiteSpace=wrap;html=1;aspect=fixed;fontFamily=Helvetica;fontSize=11;labelBackgroundColor=default;fillColor=light-dark(#0f0e0e, #ededed);container=0;" parent="1" vertex="1">
          <mxGeometry x="490" y="590" width="18" height="18" as="geometry" />
        </mxCell>
        <mxCell id="S3rH2LV8QHZ5XTYs6tV--13" value="" style="ellipse;whiteSpace=wrap;html=1;aspect=fixed;fontFamily=Helvetica;fontSize=11;labelBackgroundColor=default;fillColor=light-dark(#0f0e0e, #ededed);container=0;" parent="1" vertex="1">
          <mxGeometry x="490" y="620" width="18" height="18" as="geometry" />
        </mxCell>
        <mxCell id="S3rH2LV8QHZ5XTYs6tV--12" value="" style="ellipse;whiteSpace=wrap;html=1;aspect=fixed;fontFamily=Helvetica;fontSize=11;labelBackgroundColor=default;fillColor=light-dark(#0f0e0e, #ededed);container=0;" parent="1" vertex="1">
          <mxGeometry x="490" y="650" width="18" height="18" as="geometry" />
        </mxCell>
        <mxCell id="S3rH2LV8QHZ5XTYs6tV--9" value="&lt;font style=&quot;font-size: 20px;&quot;&gt;&lt;b&gt;客户端 2&lt;/b&gt;&lt;/font&gt;" style="text;html=1;align=center;verticalAlign=middle;resizable=0;points=[];autosize=1;strokeColor=none;fillColor=none;fontFamily=Helvetica;fontSize=11;fontColor=default;labelBackgroundColor=default;" parent="1" vertex="1">
          <mxGeometry x="370.0041176470588" y="325.2965217391304" width="100" height="40" as="geometry" />
        </mxCell>
        <mxCell id="S3rH2LV8QHZ5XTYs6tV--7" value="" style="image;aspect=fixed;perimeter=ellipsePerimeter;html=1;align=center;shadow=0;dashed=0;spacingTop=3;image=img/lib/active_directory/laptop_client.svg;" parent="1" vertex="1">
          <mxGeometry x="352.9047058823529" y="370.00260869565216" width="111.91304347826086" height="124.34782608695652" as="geometry" />
        </mxCell>
        <mxCell id="S3rH2LV8QHZ5XTYs6tV--10" value="" style="image;aspect=fixed;perimeter=ellipsePerimeter;html=1;align=center;shadow=0;dashed=0;spacingTop=3;image=img/lib/active_directory/databases.svg;" parent="1" vertex="1">
          <mxGeometry x="384.99764705882353" y="500.61304347826075" width="56.52173913043478" height="55.391304347826086" as="geometry" />
        </mxCell>
        <mxCell id="-kdukgbmFTFrDUBq5qtz-1" style="rounded=0;orthogonalLoop=1;jettySize=auto;html=1;exitX=1;exitY=0.25;exitDx=0;exitDy=0;entryX=0;entryY=0.25;entryDx=0;entryDy=0;strokeWidth=3;fillColor=#e1d5e7;strokeColor=#9673a6;" parent="1" source="S3rH2LV8QHZ5XTYs6tV--1" target="S3rH2LV8QHZ5XTYs6tV--145" edge="1">
          <mxGeometry relative="1" as="geometry" />
        </mxCell>
        <mxCell id="S3rH2LV8QHZ5XTYs6tV--1" value="" style="rounded=0;whiteSpace=wrap;html=1;fontFamily=Helvetica;fontSize=11;fontColor=default;labelBackgroundColor=default;fillColor=none;strokeColor=default;dashed=1;" parent="1" vertex="1">
          <mxGeometry x="350" y="-10" width="320" height="280" as="geometry" />
        </mxCell>
        <mxCell id="S3rH2LV8QHZ5XTYs6tV--2" value="" style="image;aspect=fixed;perimeter=ellipsePerimeter;html=1;align=center;shadow=0;dashed=0;spacingTop=3;image=img/lib/active_directory/databases.svg;" parent="1" vertex="1">
          <mxGeometry x="380.6005882352941" y="199.9991304347826" width="56.52173913043478" height="55.391304347826086" as="geometry" />
        </mxCell>
        <mxCell id="S3rH2LV8QHZ5XTYs6tV--3" value="" style="sketch=0;outlineConnect=0;fontColor=#232F3E;gradientColor=none;fillColor=#232F3D;strokeColor=none;dashed=0;verticalLabelPosition=bottom;verticalAlign=top;align=center;html=1;fontSize=12;fontStyle=0;aspect=fixed;pointerEvents=1;shape=mxgraph.aws4.mobile_client;" parent="1" vertex="1">
          <mxGeometry x="375.88235294117646" y="73.65217391304347" width="65.9608695652174" height="125.47826086956522" as="geometry" />
        </mxCell>
        <mxCell id="S3rH2LV8QHZ5XTYs6tV--4" value="&lt;font style=&quot;font-size: 20px; color: rgb(255, 39, 96);&quot;&gt;&lt;b&gt;客户端 1 &lt;font&gt;（离线）&lt;/font&gt;&lt;/b&gt;&lt;/font&gt;" style="text;html=1;align=center;verticalAlign=middle;resizable=0;points=[];autosize=1;strokeColor=none;fillColor=none;fontFamily=Helvetica;fontSize=11;fontColor=default;labelBackgroundColor=default;" parent="1" vertex="1">
          <mxGeometry x="375.8841176470589" y="14.996521739130436" width="190" height="40" as="geometry" />
        </mxCell>
        <mxCell id="S3rH2LV8QHZ5XTYs6tV--134" value="&lt;font style=&quot;font-size: 20px;&quot;&gt;客户端模型部分&lt;/font&gt;" style="text;html=1;align=center;verticalAlign=middle;resizable=0;points=[];autosize=1;strokeColor=none;fillColor=none;fontFamily=Helvetica;fontSize=11;fontColor=default;labelBackgroundColor=default;" parent="1" vertex="1">
          <mxGeometry x="470" y="55" width="160" height="40" as="geometry" />
        </mxCell>
        <mxCell id="S3rH2LV8QHZ5XTYs6tV--106" value="" style="group" parent="1" vertex="1" connectable="0">
          <mxGeometry x="480" y="95" width="140" height="150" as="geometry" />
        </mxCell>
        <mxCell id="S3rH2LV8QHZ5XTYs6tV--107" style="rounded=0;orthogonalLoop=1;jettySize=auto;html=1;exitX=1;exitY=0.5;exitDx=0;exitDy=0;entryX=0;entryY=0.5;entryDx=0;entryDy=0;" parent="S3rH2LV8QHZ5XTYs6tV--106" source="S3rH2LV8QHZ5XTYs6tV--111" target="S3rH2LV8QHZ5XTYs6tV--117" edge="1">
          <mxGeometry relative="1" as="geometry" />
        </mxCell>
        <mxCell id="S3rH2LV8QHZ5XTYs6tV--108" style="edgeStyle=none;shape=connector;rounded=0;orthogonalLoop=1;jettySize=auto;html=1;exitX=1;exitY=0.5;exitDx=0;exitDy=0;entryX=0;entryY=0.5;entryDx=0;entryDy=0;strokeColor=default;align=center;verticalAlign=middle;fontFamily=Helvetica;fontSize=11;fontColor=default;labelBackgroundColor=default;endArrow=classic;" parent="S3rH2LV8QHZ5XTYs6tV--106" source="S3rH2LV8QHZ5XTYs6tV--111" target="S3rH2LV8QHZ5XTYs6tV--120" edge="1">
          <mxGeometry relative="1" as="geometry" />
        </mxCell>
        <mxCell id="S3rH2LV8QHZ5XTYs6tV--109" style="edgeStyle=none;shape=connector;rounded=0;orthogonalLoop=1;jettySize=auto;html=1;exitX=1;exitY=0.5;exitDx=0;exitDy=0;entryX=0;entryY=0.5;entryDx=0;entryDy=0;strokeColor=default;align=center;verticalAlign=middle;fontFamily=Helvetica;fontSize=11;fontColor=default;labelBackgroundColor=default;endArrow=classic;" parent="S3rH2LV8QHZ5XTYs6tV--106" source="S3rH2LV8QHZ5XTYs6tV--111" target="S3rH2LV8QHZ5XTYs6tV--123" edge="1">
          <mxGeometry relative="1" as="geometry" />
        </mxCell>
        <mxCell id="S3rH2LV8QHZ5XTYs6tV--110" style="edgeStyle=none;shape=connector;rounded=0;orthogonalLoop=1;jettySize=auto;html=1;exitX=1;exitY=0.5;exitDx=0;exitDy=0;entryX=0;entryY=0.5;entryDx=0;entryDy=0;strokeColor=default;align=center;verticalAlign=middle;fontFamily=Helvetica;fontSize=11;fontColor=default;labelBackgroundColor=default;endArrow=classic;" parent="S3rH2LV8QHZ5XTYs6tV--106" source="S3rH2LV8QHZ5XTYs6tV--111" target="S3rH2LV8QHZ5XTYs6tV--126" edge="1">
          <mxGeometry relative="1" as="geometry" />
        </mxCell>
        <mxCell id="S3rH2LV8QHZ5XTYs6tV--111" value="" style="ellipse;whiteSpace=wrap;html=1;fillColor=#f8cecc;strokeColor=#b85450;" parent="S3rH2LV8QHZ5XTYs6tV--106" vertex="1">
          <mxGeometry y="46.55172413793104" width="32.30769230769231" height="25.862068965517242" as="geometry" />
        </mxCell>
        <mxCell id="S3rH2LV8QHZ5XTYs6tV--112" style="edgeStyle=none;shape=connector;rounded=0;orthogonalLoop=1;jettySize=auto;html=1;exitX=1;exitY=0.5;exitDx=0;exitDy=0;entryX=0;entryY=0.5;entryDx=0;entryDy=0;strokeColor=default;align=center;verticalAlign=middle;fontFamily=Helvetica;fontSize=11;fontColor=default;labelBackgroundColor=default;endArrow=classic;" parent="S3rH2LV8QHZ5XTYs6tV--106" source="S3rH2LV8QHZ5XTYs6tV--115" target="S3rH2LV8QHZ5XTYs6tV--117" edge="1">
          <mxGeometry relative="1" as="geometry" />
        </mxCell>
        <mxCell id="S3rH2LV8QHZ5XTYs6tV--113" style="edgeStyle=none;shape=connector;rounded=0;orthogonalLoop=1;jettySize=auto;html=1;exitX=1;exitY=0.5;exitDx=0;exitDy=0;entryX=0;entryY=0.5;entryDx=0;entryDy=0;strokeColor=default;align=center;verticalAlign=middle;fontFamily=Helvetica;fontSize=11;fontColor=default;labelBackgroundColor=default;endArrow=classic;" parent="S3rH2LV8QHZ5XTYs6tV--106" source="S3rH2LV8QHZ5XTYs6tV--115" target="S3rH2LV8QHZ5XTYs6tV--120" edge="1">
          <mxGeometry relative="1" as="geometry" />
        </mxCell>
        <mxCell id="S3rH2LV8QHZ5XTYs6tV--114" style="edgeStyle=none;shape=connector;rounded=0;orthogonalLoop=1;jettySize=auto;html=1;exitX=1;exitY=0.5;exitDx=0;exitDy=0;entryX=0;entryY=0.5;entryDx=0;entryDy=0;strokeColor=default;align=center;verticalAlign=middle;fontFamily=Helvetica;fontSize=11;fontColor=default;labelBackgroundColor=default;endArrow=classic;" parent="S3rH2LV8QHZ5XTYs6tV--106" source="S3rH2LV8QHZ5XTYs6tV--115" target="S3rH2LV8QHZ5XTYs6tV--126" edge="1">
          <mxGeometry relative="1" as="geometry" />
        </mxCell>
        <mxCell id="S3rH2LV8QHZ5XTYs6tV--115" value="" style="ellipse;whiteSpace=wrap;html=1;fillColor=#f8cecc;strokeColor=#b85450;" parent="S3rH2LV8QHZ5XTYs6tV--106" vertex="1">
          <mxGeometry y="87.93103448275863" width="32.30769230769231" height="25.862068965517242" as="geometry" />
        </mxCell>
        <mxCell id="S3rH2LV8QHZ5XTYs6tV--116" style="edgeStyle=none;shape=connector;rounded=0;orthogonalLoop=1;jettySize=auto;html=1;exitX=1;exitY=0.5;exitDx=0;exitDy=0;entryX=0;entryY=0.5;entryDx=0;entryDy=0;strokeColor=default;align=center;verticalAlign=middle;fontFamily=Helvetica;fontSize=11;fontColor=default;labelBackgroundColor=default;endArrow=classic;" parent="S3rH2LV8QHZ5XTYs6tV--106" source="S3rH2LV8QHZ5XTYs6tV--117" target="S3rH2LV8QHZ5XTYs6tV--127" edge="1">
          <mxGeometry relative="1" as="geometry" />
        </mxCell>
        <mxCell id="S3rH2LV8QHZ5XTYs6tV--117" value="" style="ellipse;whiteSpace=wrap;html=1;fillColor=#a20025;fontColor=#ffffff;strokeColor=#6F0000;" parent="S3rH2LV8QHZ5XTYs6tV--106" vertex="1">
          <mxGeometry x="56.80769230769231" width="32.30769230769231" height="25.862068965517242" as="geometry" />
        </mxCell>
        <mxCell id="S3rH2LV8QHZ5XTYs6tV--118" style="edgeStyle=none;shape=connector;rounded=0;orthogonalLoop=1;jettySize=auto;html=1;exitX=1;exitY=0.5;exitDx=0;exitDy=0;entryX=0;entryY=0.5;entryDx=0;entryDy=0;strokeColor=default;align=center;verticalAlign=middle;fontFamily=Helvetica;fontSize=11;fontColor=default;labelBackgroundColor=default;endArrow=classic;" parent="S3rH2LV8QHZ5XTYs6tV--106" source="S3rH2LV8QHZ5XTYs6tV--120" target="S3rH2LV8QHZ5XTYs6tV--127" edge="1">
          <mxGeometry relative="1" as="geometry" />
        </mxCell>
        <mxCell id="S3rH2LV8QHZ5XTYs6tV--119" style="edgeStyle=none;shape=connector;rounded=0;orthogonalLoop=1;jettySize=auto;html=1;exitX=1;exitY=0.5;exitDx=0;exitDy=0;entryX=0;entryY=0.5;entryDx=0;entryDy=0;strokeColor=default;align=center;verticalAlign=middle;fontFamily=Helvetica;fontSize=11;fontColor=default;labelBackgroundColor=default;endArrow=classic;" parent="S3rH2LV8QHZ5XTYs6tV--106" source="S3rH2LV8QHZ5XTYs6tV--120" target="S3rH2LV8QHZ5XTYs6tV--128" edge="1">
          <mxGeometry relative="1" as="geometry" />
        </mxCell>
        <mxCell id="S3rH2LV8QHZ5XTYs6tV--120" value="" style="ellipse;whiteSpace=wrap;html=1;fillColor=#a20025;fontColor=#ffffff;strokeColor=#6F0000;" parent="S3rH2LV8QHZ5XTYs6tV--106" vertex="1">
          <mxGeometry x="56.80769230769231" y="41.37931034482759" width="32.30769230769231" height="25.862068965517242" as="geometry" />
        </mxCell>
        <mxCell id="S3rH2LV8QHZ5XTYs6tV--121" style="edgeStyle=none;shape=connector;rounded=0;orthogonalLoop=1;jettySize=auto;html=1;exitX=1;exitY=0.5;exitDx=0;exitDy=0;entryX=0;entryY=0.5;entryDx=0;entryDy=0;strokeColor=default;align=center;verticalAlign=middle;fontFamily=Helvetica;fontSize=11;fontColor=default;labelBackgroundColor=default;endArrow=classic;" parent="S3rH2LV8QHZ5XTYs6tV--106" source="S3rH2LV8QHZ5XTYs6tV--123" target="S3rH2LV8QHZ5XTYs6tV--128" edge="1">
          <mxGeometry relative="1" as="geometry" />
        </mxCell>
        <mxCell id="S3rH2LV8QHZ5XTYs6tV--122" style="edgeStyle=none;shape=connector;rounded=0;orthogonalLoop=1;jettySize=auto;html=1;exitX=1;exitY=0.5;exitDx=0;exitDy=0;entryX=0;entryY=0.5;entryDx=0;entryDy=0;strokeColor=default;align=center;verticalAlign=middle;fontFamily=Helvetica;fontSize=11;fontColor=default;labelBackgroundColor=default;endArrow=classic;" parent="S3rH2LV8QHZ5XTYs6tV--106" source="S3rH2LV8QHZ5XTYs6tV--123" target="S3rH2LV8QHZ5XTYs6tV--127" edge="1">
          <mxGeometry relative="1" as="geometry" />
        </mxCell>
        <mxCell id="S3rH2LV8QHZ5XTYs6tV--123" value="" style="ellipse;whiteSpace=wrap;html=1;fillColor=#a20025;fontColor=#ffffff;strokeColor=#6F0000;" parent="S3rH2LV8QHZ5XTYs6tV--106" vertex="1">
          <mxGeometry x="56.80769230769231" y="82.75862068965517" width="32.30769230769231" height="25.862068965517242" as="geometry" />
        </mxCell>
        <mxCell id="S3rH2LV8QHZ5XTYs6tV--124" style="edgeStyle=none;shape=connector;rounded=0;orthogonalLoop=1;jettySize=auto;html=1;exitX=1;exitY=0.5;exitDx=0;exitDy=0;entryX=0;entryY=0.5;entryDx=0;entryDy=0;strokeColor=default;align=center;verticalAlign=middle;fontFamily=Helvetica;fontSize=11;fontColor=default;labelBackgroundColor=default;endArrow=classic;" parent="S3rH2LV8QHZ5XTYs6tV--106" source="S3rH2LV8QHZ5XTYs6tV--126" target="S3rH2LV8QHZ5XTYs6tV--128" edge="1">
          <mxGeometry relative="1" as="geometry" />
        </mxCell>
        <mxCell id="S3rH2LV8QHZ5XTYs6tV--125" style="edgeStyle=none;shape=connector;rounded=0;orthogonalLoop=1;jettySize=auto;html=1;exitX=1;exitY=0.5;exitDx=0;exitDy=0;entryX=0;entryY=0.5;entryDx=0;entryDy=0;strokeColor=default;align=center;verticalAlign=middle;fontFamily=Helvetica;fontSize=11;fontColor=default;labelBackgroundColor=default;endArrow=classic;" parent="S3rH2LV8QHZ5XTYs6tV--106" source="S3rH2LV8QHZ5XTYs6tV--126" target="S3rH2LV8QHZ5XTYs6tV--127" edge="1">
          <mxGeometry relative="1" as="geometry" />
        </mxCell>
        <mxCell id="S3rH2LV8QHZ5XTYs6tV--126" value="" style="ellipse;whiteSpace=wrap;html=1;fillColor=#a20025;fontColor=#ffffff;strokeColor=#6F0000;" parent="S3rH2LV8QHZ5XTYs6tV--106" vertex="1">
          <mxGeometry x="59.230769230769226" y="124.13793103448276" width="32.30769230769231" height="25.862068965517242" as="geometry" />
        </mxCell>
        <mxCell id="S3rH2LV8QHZ5XTYs6tV--127" value="" style="ellipse;whiteSpace=wrap;html=1;fillColor=#60a917;fontColor=#ffffff;strokeColor=#2D7600;" parent="S3rH2LV8QHZ5XTYs6tV--106" vertex="1">
          <mxGeometry x="107.6923076923077" y="46.55172413793104" width="32.30769230769231" height="25.862068965517242" as="geometry" />
        </mxCell>
        <mxCell id="S3rH2LV8QHZ5XTYs6tV--128" value="" style="ellipse;whiteSpace=wrap;html=1;fillColor=#60a917;fontColor=#ffffff;strokeColor=#2D7600;" parent="S3rH2LV8QHZ5XTYs6tV--106" vertex="1">
          <mxGeometry x="107.6923076923077" y="87.93103448275863" width="32.30769230769231" height="25.862068965517242" as="geometry" />
        </mxCell>
        <mxCell id="S3rH2LV8QHZ5XTYs6tV--129" style="edgeStyle=none;shape=connector;rounded=0;orthogonalLoop=1;jettySize=auto;html=1;exitX=1;exitY=0.5;exitDx=0;exitDy=0;entryX=0;entryY=0.6;entryDx=0;entryDy=0;entryPerimeter=0;strokeColor=default;align=center;verticalAlign=middle;fontFamily=Helvetica;fontSize=11;fontColor=default;labelBackgroundColor=default;endArrow=classic;" parent="S3rH2LV8QHZ5XTYs6tV--106" source="S3rH2LV8QHZ5XTYs6tV--117" target="S3rH2LV8QHZ5XTYs6tV--128" edge="1">
          <mxGeometry relative="1" as="geometry" />
        </mxCell>
        <mxCell id="S3rH2LV8QHZ5XTYs6tV--146" value="&lt;font style=&quot;font-size: 20px;&quot;&gt;客户端模型部分&lt;/font&gt;" style="text;html=1;align=center;verticalAlign=middle;resizable=0;points=[];autosize=1;strokeColor=none;fillColor=none;fontFamily=Helvetica;fontSize=11;fontColor=default;labelBackgroundColor=default;" parent="1" vertex="1">
          <mxGeometry x="480" y="350" width="160" height="40" as="geometry" />
        </mxCell>
        <mxCell id="S3rH2LV8QHZ5XTYs6tV--147" value="" style="group" parent="1" vertex="1" connectable="0">
          <mxGeometry x="490" y="390" width="140" height="150" as="geometry" />
        </mxCell>
        <mxCell id="S3rH2LV8QHZ5XTYs6tV--148" style="rounded=0;orthogonalLoop=1;jettySize=auto;html=1;exitX=1;exitY=0.5;exitDx=0;exitDy=0;entryX=0;entryY=0.5;entryDx=0;entryDy=0;" parent="S3rH2LV8QHZ5XTYs6tV--147" source="S3rH2LV8QHZ5XTYs6tV--152" target="S3rH2LV8QHZ5XTYs6tV--158" edge="1">
          <mxGeometry relative="1" as="geometry" />
        </mxCell>
        <mxCell id="S3rH2LV8QHZ5XTYs6tV--149" style="edgeStyle=none;shape=connector;rounded=0;orthogonalLoop=1;jettySize=auto;html=1;exitX=1;exitY=0.5;exitDx=0;exitDy=0;entryX=0;entryY=0.5;entryDx=0;entryDy=0;strokeColor=default;align=center;verticalAlign=middle;fontFamily=Helvetica;fontSize=11;fontColor=default;labelBackgroundColor=default;endArrow=classic;" parent="S3rH2LV8QHZ5XTYs6tV--147" source="S3rH2LV8QHZ5XTYs6tV--152" target="S3rH2LV8QHZ5XTYs6tV--161" edge="1">
          <mxGeometry relative="1" as="geometry" />
        </mxCell>
        <mxCell id="S3rH2LV8QHZ5XTYs6tV--150" style="edgeStyle=none;shape=connector;rounded=0;orthogonalLoop=1;jettySize=auto;html=1;exitX=1;exitY=0.5;exitDx=0;exitDy=0;entryX=0;entryY=0.5;entryDx=0;entryDy=0;strokeColor=default;align=center;verticalAlign=middle;fontFamily=Helvetica;fontSize=11;fontColor=default;labelBackgroundColor=default;endArrow=classic;" parent="S3rH2LV8QHZ5XTYs6tV--147" source="S3rH2LV8QHZ5XTYs6tV--152" target="S3rH2LV8QHZ5XTYs6tV--164" edge="1">
          <mxGeometry relative="1" as="geometry" />
        </mxCell>
        <mxCell id="S3rH2LV8QHZ5XTYs6tV--151" style="edgeStyle=none;shape=connector;rounded=0;orthogonalLoop=1;jettySize=auto;html=1;exitX=1;exitY=0.5;exitDx=0;exitDy=0;entryX=0;entryY=0.5;entryDx=0;entryDy=0;strokeColor=default;align=center;verticalAlign=middle;fontFamily=Helvetica;fontSize=11;fontColor=default;labelBackgroundColor=default;endArrow=classic;" parent="S3rH2LV8QHZ5XTYs6tV--147" source="S3rH2LV8QHZ5XTYs6tV--152" target="S3rH2LV8QHZ5XTYs6tV--167" edge="1">
          <mxGeometry relative="1" as="geometry" />
        </mxCell>
        <mxCell id="S3rH2LV8QHZ5XTYs6tV--152" value="" style="ellipse;whiteSpace=wrap;html=1;fillColor=#f8cecc;strokeColor=#b85450;" parent="S3rH2LV8QHZ5XTYs6tV--147" vertex="1">
          <mxGeometry y="46.55172413793104" width="32.30769230769231" height="25.862068965517242" as="geometry" />
        </mxCell>
        <mxCell id="S3rH2LV8QHZ5XTYs6tV--153" style="edgeStyle=none;shape=connector;rounded=0;orthogonalLoop=1;jettySize=auto;html=1;exitX=1;exitY=0.5;exitDx=0;exitDy=0;entryX=0;entryY=0.5;entryDx=0;entryDy=0;strokeColor=default;align=center;verticalAlign=middle;fontFamily=Helvetica;fontSize=11;fontColor=default;labelBackgroundColor=default;endArrow=classic;" parent="S3rH2LV8QHZ5XTYs6tV--147" source="S3rH2LV8QHZ5XTYs6tV--156" target="S3rH2LV8QHZ5XTYs6tV--158" edge="1">
          <mxGeometry relative="1" as="geometry" />
        </mxCell>
        <mxCell id="S3rH2LV8QHZ5XTYs6tV--154" style="edgeStyle=none;shape=connector;rounded=0;orthogonalLoop=1;jettySize=auto;html=1;exitX=1;exitY=0.5;exitDx=0;exitDy=0;entryX=0;entryY=0.5;entryDx=0;entryDy=0;strokeColor=default;align=center;verticalAlign=middle;fontFamily=Helvetica;fontSize=11;fontColor=default;labelBackgroundColor=default;endArrow=classic;" parent="S3rH2LV8QHZ5XTYs6tV--147" source="S3rH2LV8QHZ5XTYs6tV--156" target="S3rH2LV8QHZ5XTYs6tV--161" edge="1">
          <mxGeometry relative="1" as="geometry" />
        </mxCell>
        <mxCell id="S3rH2LV8QHZ5XTYs6tV--155" style="edgeStyle=none;shape=connector;rounded=0;orthogonalLoop=1;jettySize=auto;html=1;exitX=1;exitY=0.5;exitDx=0;exitDy=0;entryX=0;entryY=0.5;entryDx=0;entryDy=0;strokeColor=default;align=center;verticalAlign=middle;fontFamily=Helvetica;fontSize=11;fontColor=default;labelBackgroundColor=default;endArrow=classic;" parent="S3rH2LV8QHZ5XTYs6tV--147" source="S3rH2LV8QHZ5XTYs6tV--156" target="S3rH2LV8QHZ5XTYs6tV--167" edge="1">
          <mxGeometry relative="1" as="geometry" />
        </mxCell>
        <mxCell id="S3rH2LV8QHZ5XTYs6tV--156" value="" style="ellipse;whiteSpace=wrap;html=1;fillColor=#f8cecc;strokeColor=#b85450;" parent="S3rH2LV8QHZ5XTYs6tV--147" vertex="1">
          <mxGeometry y="87.93103448275863" width="32.30769230769231" height="25.862068965517242" as="geometry" />
        </mxCell>
        <mxCell id="S3rH2LV8QHZ5XTYs6tV--157" style="edgeStyle=none;shape=connector;rounded=0;orthogonalLoop=1;jettySize=auto;html=1;exitX=1;exitY=0.5;exitDx=0;exitDy=0;entryX=0;entryY=0.5;entryDx=0;entryDy=0;strokeColor=default;align=center;verticalAlign=middle;fontFamily=Helvetica;fontSize=11;fontColor=default;labelBackgroundColor=default;endArrow=classic;" parent="S3rH2LV8QHZ5XTYs6tV--147" source="S3rH2LV8QHZ5XTYs6tV--158" target="S3rH2LV8QHZ5XTYs6tV--168" edge="1">
          <mxGeometry relative="1" as="geometry" />
        </mxCell>
        <mxCell id="S3rH2LV8QHZ5XTYs6tV--158" value="" style="ellipse;whiteSpace=wrap;html=1;fillColor=#a20025;fontColor=#ffffff;strokeColor=#6F0000;" parent="S3rH2LV8QHZ5XTYs6tV--147" vertex="1">
          <mxGeometry x="56.80769230769231" width="32.30769230769231" height="25.862068965517242" as="geometry" />
        </mxCell>
        <mxCell id="S3rH2LV8QHZ5XTYs6tV--159" style="edgeStyle=none;shape=connector;rounded=0;orthogonalLoop=1;jettySize=auto;html=1;exitX=1;exitY=0.5;exitDx=0;exitDy=0;entryX=0;entryY=0.5;entryDx=0;entryDy=0;strokeColor=default;align=center;verticalAlign=middle;fontFamily=Helvetica;fontSize=11;fontColor=default;labelBackgroundColor=default;endArrow=classic;" parent="S3rH2LV8QHZ5XTYs6tV--147" source="S3rH2LV8QHZ5XTYs6tV--161" target="S3rH2LV8QHZ5XTYs6tV--168" edge="1">
          <mxGeometry relative="1" as="geometry" />
        </mxCell>
        <mxCell id="S3rH2LV8QHZ5XTYs6tV--160" style="edgeStyle=none;shape=connector;rounded=0;orthogonalLoop=1;jettySize=auto;html=1;exitX=1;exitY=0.5;exitDx=0;exitDy=0;entryX=0;entryY=0.5;entryDx=0;entryDy=0;strokeColor=default;align=center;verticalAlign=middle;fontFamily=Helvetica;fontSize=11;fontColor=default;labelBackgroundColor=default;endArrow=classic;" parent="S3rH2LV8QHZ5XTYs6tV--147" source="S3rH2LV8QHZ5XTYs6tV--161" target="S3rH2LV8QHZ5XTYs6tV--169" edge="1">
          <mxGeometry relative="1" as="geometry" />
        </mxCell>
        <mxCell id="S3rH2LV8QHZ5XTYs6tV--161" value="" style="ellipse;whiteSpace=wrap;html=1;fillColor=#a20025;fontColor=#ffffff;strokeColor=#6F0000;" parent="S3rH2LV8QHZ5XTYs6tV--147" vertex="1">
          <mxGeometry x="56.80769230769231" y="41.37931034482759" width="32.30769230769231" height="25.862068965517242" as="geometry" />
        </mxCell>
        <mxCell id="S3rH2LV8QHZ5XTYs6tV--162" style="edgeStyle=none;shape=connector;rounded=0;orthogonalLoop=1;jettySize=auto;html=1;exitX=1;exitY=0.5;exitDx=0;exitDy=0;entryX=0;entryY=0.5;entryDx=0;entryDy=0;strokeColor=default;align=center;verticalAlign=middle;fontFamily=Helvetica;fontSize=11;fontColor=default;labelBackgroundColor=default;endArrow=classic;" parent="S3rH2LV8QHZ5XTYs6tV--147" source="S3rH2LV8QHZ5XTYs6tV--164" target="S3rH2LV8QHZ5XTYs6tV--169" edge="1">
          <mxGeometry relative="1" as="geometry" />
        </mxCell>
        <mxCell id="S3rH2LV8QHZ5XTYs6tV--163" style="edgeStyle=none;shape=connector;rounded=0;orthogonalLoop=1;jettySize=auto;html=1;exitX=1;exitY=0.5;exitDx=0;exitDy=0;entryX=0;entryY=0.5;entryDx=0;entryDy=0;strokeColor=default;align=center;verticalAlign=middle;fontFamily=Helvetica;fontSize=11;fontColor=default;labelBackgroundColor=default;endArrow=classic;" parent="S3rH2LV8QHZ5XTYs6tV--147" source="S3rH2LV8QHZ5XTYs6tV--164" target="S3rH2LV8QHZ5XTYs6tV--168" edge="1">
          <mxGeometry relative="1" as="geometry" />
        </mxCell>
        <mxCell id="S3rH2LV8QHZ5XTYs6tV--164" value="" style="ellipse;whiteSpace=wrap;html=1;fillColor=#a20025;fontColor=#ffffff;strokeColor=#6F0000;" parent="S3rH2LV8QHZ5XTYs6tV--147" vertex="1">
          <mxGeometry x="56.80769230769231" y="82.75862068965517" width="32.30769230769231" height="25.862068965517242" as="geometry" />
        </mxCell>
        <mxCell id="S3rH2LV8QHZ5XTYs6tV--165" style="edgeStyle=none;shape=connector;rounded=0;orthogonalLoop=1;jettySize=auto;html=1;exitX=1;exitY=0.5;exitDx=0;exitDy=0;entryX=0;entryY=0.5;entryDx=0;entryDy=0;strokeColor=default;align=center;verticalAlign=middle;fontFamily=Helvetica;fontSize=11;fontColor=default;labelBackgroundColor=default;endArrow=classic;" parent="S3rH2LV8QHZ5XTYs6tV--147" source="S3rH2LV8QHZ5XTYs6tV--167" target="S3rH2LV8QHZ5XTYs6tV--169" edge="1">
          <mxGeometry relative="1" as="geometry" />
        </mxCell>
        <mxCell id="S3rH2LV8QHZ5XTYs6tV--166" style="edgeStyle=none;shape=connector;rounded=0;orthogonalLoop=1;jettySize=auto;html=1;exitX=1;exitY=0.5;exitDx=0;exitDy=0;entryX=0;entryY=0.5;entryDx=0;entryDy=0;strokeColor=default;align=center;verticalAlign=middle;fontFamily=Helvetica;fontSize=11;fontColor=default;labelBackgroundColor=default;endArrow=classic;" parent="S3rH2LV8QHZ5XTYs6tV--147" source="S3rH2LV8QHZ5XTYs6tV--167" target="S3rH2LV8QHZ5XTYs6tV--168" edge="1">
          <mxGeometry relative="1" as="geometry" />
        </mxCell>
        <mxCell id="S3rH2LV8QHZ5XTYs6tV--167" value="" style="ellipse;whiteSpace=wrap;html=1;fillColor=#a20025;fontColor=#ffffff;strokeColor=#6F0000;" parent="S3rH2LV8QHZ5XTYs6tV--147" vertex="1">
          <mxGeometry x="59.230769230769226" y="124.13793103448276" width="32.30769230769231" height="25.862068965517242" as="geometry" />
        </mxCell>
        <mxCell id="S3rH2LV8QHZ5XTYs6tV--168" value="" style="ellipse;whiteSpace=wrap;html=1;fillColor=#60a917;fontColor=#ffffff;strokeColor=#2D7600;" parent="S3rH2LV8QHZ5XTYs6tV--147" vertex="1">
          <mxGeometry x="107.6923076923077" y="46.55172413793104" width="32.30769230769231" height="25.862068965517242" as="geometry" />
        </mxCell>
        <mxCell id="S3rH2LV8QHZ5XTYs6tV--169" value="" style="ellipse;whiteSpace=wrap;html=1;fillColor=#60a917;fontColor=#ffffff;strokeColor=#2D7600;" parent="S3rH2LV8QHZ5XTYs6tV--147" vertex="1">
          <mxGeometry x="107.6923076923077" y="87.93103448275863" width="32.30769230769231" height="25.862068965517242" as="geometry" />
        </mxCell>
        <mxCell id="S3rH2LV8QHZ5XTYs6tV--170" style="edgeStyle=none;shape=connector;rounded=0;orthogonalLoop=1;jettySize=auto;html=1;exitX=1;exitY=0.5;exitDx=0;exitDy=0;entryX=0;entryY=0.6;entryDx=0;entryDy=0;entryPerimeter=0;strokeColor=default;align=center;verticalAlign=middle;fontFamily=Helvetica;fontSize=11;fontColor=default;labelBackgroundColor=default;endArrow=classic;" parent="S3rH2LV8QHZ5XTYs6tV--147" source="S3rH2LV8QHZ5XTYs6tV--158" target="S3rH2LV8QHZ5XTYs6tV--169" edge="1">
          <mxGeometry relative="1" as="geometry" />
        </mxCell>
        <mxCell id="S3rH2LV8QHZ5XTYs6tV--196" value="" style="group" parent="1" vertex="1" connectable="0">
          <mxGeometry x="345" y="690" width="330" height="265" as="geometry" />
        </mxCell>
        <mxCell id="S3rH2LV8QHZ5XTYs6tV--15" value="" style="rounded=0;whiteSpace=wrap;html=1;fontFamily=Helvetica;fontSize=11;fontColor=default;labelBackgroundColor=default;fillColor=none;strokeColor=default;dashed=1;" parent="S3rH2LV8QHZ5XTYs6tV--196" vertex="1">
          <mxGeometry width="330" height="265" as="geometry" />
        </mxCell>
        <mxCell id="S3rH2LV8QHZ5XTYs6tV--16" value="" style="image;aspect=fixed;perimeter=ellipsePerimeter;html=1;align=center;shadow=0;dashed=0;spacingTop=3;image=img/lib/active_directory/workstation_client.svg;" parent="S3rH2LV8QHZ5XTYs6tV--196" vertex="1">
          <mxGeometry x="11.25" y="55" width="110.5" height="130" as="geometry" />
        </mxCell>
        <mxCell id="S3rH2LV8QHZ5XTYs6tV--17" value="" style="image;aspect=fixed;perimeter=ellipsePerimeter;html=1;align=center;shadow=0;dashed=0;spacingTop=3;image=img/lib/active_directory/databases.svg;" parent="S3rH2LV8QHZ5XTYs6tV--196" vertex="1">
          <mxGeometry x="43.25999999999999" y="190.5" width="50" height="49" as="geometry" />
        </mxCell>
        <mxCell id="S3rH2LV8QHZ5XTYs6tV--18" value="&lt;font style=&quot;font-size: 20px;&quot;&gt;&lt;b&gt;客户端 n&lt;/b&gt;&lt;/font&gt;" style="text;html=1;align=center;verticalAlign=middle;resizable=0;points=[];autosize=1;strokeColor=none;fillColor=none;fontFamily=Helvetica;fontSize=11;fontColor=default;labelBackgroundColor=default;" parent="S3rH2LV8QHZ5XTYs6tV--196" vertex="1">
          <mxGeometry x="26.75" y="15" width="100" height="40" as="geometry" />
        </mxCell>
        <mxCell id="S3rH2LV8QHZ5XTYs6tV--171" value="&lt;font style=&quot;font-size: 20px;&quot;&gt;客户端模型部分&lt;/font&gt;" style="text;html=1;align=center;verticalAlign=middle;resizable=0;points=[];autosize=1;strokeColor=none;fillColor=none;fontFamily=Helvetica;fontSize=11;fontColor=default;labelBackgroundColor=default;" parent="S3rH2LV8QHZ5XTYs6tV--196" vertex="1">
          <mxGeometry x="155" y="25" width="160" height="40" as="geometry" />
        </mxCell>
        <mxCell id="S3rH2LV8QHZ5XTYs6tV--172" value="" style="group" parent="S3rH2LV8QHZ5XTYs6tV--196" vertex="1" connectable="0">
          <mxGeometry x="165" y="65" width="140" height="150" as="geometry" />
        </mxCell>
        <mxCell id="S3rH2LV8QHZ5XTYs6tV--173" style="rounded=0;orthogonalLoop=1;jettySize=auto;html=1;exitX=1;exitY=0.5;exitDx=0;exitDy=0;entryX=0;entryY=0.5;entryDx=0;entryDy=0;" parent="S3rH2LV8QHZ5XTYs6tV--172" source="S3rH2LV8QHZ5XTYs6tV--177" target="S3rH2LV8QHZ5XTYs6tV--183" edge="1">
          <mxGeometry relative="1" as="geometry" />
        </mxCell>
        <mxCell id="S3rH2LV8QHZ5XTYs6tV--174" style="edgeStyle=none;shape=connector;rounded=0;orthogonalLoop=1;jettySize=auto;html=1;exitX=1;exitY=0.5;exitDx=0;exitDy=0;entryX=0;entryY=0.5;entryDx=0;entryDy=0;strokeColor=default;align=center;verticalAlign=middle;fontFamily=Helvetica;fontSize=11;fontColor=default;labelBackgroundColor=default;endArrow=classic;" parent="S3rH2LV8QHZ5XTYs6tV--172" source="S3rH2LV8QHZ5XTYs6tV--177" target="S3rH2LV8QHZ5XTYs6tV--186" edge="1">
          <mxGeometry relative="1" as="geometry" />
        </mxCell>
        <mxCell id="S3rH2LV8QHZ5XTYs6tV--175" style="edgeStyle=none;shape=connector;rounded=0;orthogonalLoop=1;jettySize=auto;html=1;exitX=1;exitY=0.5;exitDx=0;exitDy=0;entryX=0;entryY=0.5;entryDx=0;entryDy=0;strokeColor=default;align=center;verticalAlign=middle;fontFamily=Helvetica;fontSize=11;fontColor=default;labelBackgroundColor=default;endArrow=classic;" parent="S3rH2LV8QHZ5XTYs6tV--172" source="S3rH2LV8QHZ5XTYs6tV--177" target="S3rH2LV8QHZ5XTYs6tV--189" edge="1">
          <mxGeometry relative="1" as="geometry" />
        </mxCell>
        <mxCell id="S3rH2LV8QHZ5XTYs6tV--176" style="edgeStyle=none;shape=connector;rounded=0;orthogonalLoop=1;jettySize=auto;html=1;exitX=1;exitY=0.5;exitDx=0;exitDy=0;entryX=0;entryY=0.5;entryDx=0;entryDy=0;strokeColor=default;align=center;verticalAlign=middle;fontFamily=Helvetica;fontSize=11;fontColor=default;labelBackgroundColor=default;endArrow=classic;" parent="S3rH2LV8QHZ5XTYs6tV--172" source="S3rH2LV8QHZ5XTYs6tV--177" target="S3rH2LV8QHZ5XTYs6tV--192" edge="1">
          <mxGeometry relative="1" as="geometry" />
        </mxCell>
        <mxCell id="S3rH2LV8QHZ5XTYs6tV--177" value="" style="ellipse;whiteSpace=wrap;html=1;fillColor=#f8cecc;strokeColor=#b85450;" parent="S3rH2LV8QHZ5XTYs6tV--172" vertex="1">
          <mxGeometry y="46.55172413793104" width="32.30769230769231" height="25.862068965517242" as="geometry" />
        </mxCell>
        <mxCell id="S3rH2LV8QHZ5XTYs6tV--178" style="edgeStyle=none;shape=connector;rounded=0;orthogonalLoop=1;jettySize=auto;html=1;exitX=1;exitY=0.5;exitDx=0;exitDy=0;entryX=0;entryY=0.5;entryDx=0;entryDy=0;strokeColor=default;align=center;verticalAlign=middle;fontFamily=Helvetica;fontSize=11;fontColor=default;labelBackgroundColor=default;endArrow=classic;" parent="S3rH2LV8QHZ5XTYs6tV--172" source="S3rH2LV8QHZ5XTYs6tV--181" target="S3rH2LV8QHZ5XTYs6tV--183" edge="1">
          <mxGeometry relative="1" as="geometry" />
        </mxCell>
        <mxCell id="S3rH2LV8QHZ5XTYs6tV--179" style="edgeStyle=none;shape=connector;rounded=0;orthogonalLoop=1;jettySize=auto;html=1;exitX=1;exitY=0.5;exitDx=0;exitDy=0;entryX=0;entryY=0.5;entryDx=0;entryDy=0;strokeColor=default;align=center;verticalAlign=middle;fontFamily=Helvetica;fontSize=11;fontColor=default;labelBackgroundColor=default;endArrow=classic;" parent="S3rH2LV8QHZ5XTYs6tV--172" source="S3rH2LV8QHZ5XTYs6tV--181" target="S3rH2LV8QHZ5XTYs6tV--186" edge="1">
          <mxGeometry relative="1" as="geometry" />
        </mxCell>
        <mxCell id="S3rH2LV8QHZ5XTYs6tV--180" style="edgeStyle=none;shape=connector;rounded=0;orthogonalLoop=1;jettySize=auto;html=1;exitX=1;exitY=0.5;exitDx=0;exitDy=0;entryX=0;entryY=0.5;entryDx=0;entryDy=0;strokeColor=default;align=center;verticalAlign=middle;fontFamily=Helvetica;fontSize=11;fontColor=default;labelBackgroundColor=default;endArrow=classic;" parent="S3rH2LV8QHZ5XTYs6tV--172" source="S3rH2LV8QHZ5XTYs6tV--181" target="S3rH2LV8QHZ5XTYs6tV--192" edge="1">
          <mxGeometry relative="1" as="geometry" />
        </mxCell>
        <mxCell id="S3rH2LV8QHZ5XTYs6tV--181" value="" style="ellipse;whiteSpace=wrap;html=1;fillColor=#f8cecc;strokeColor=#b85450;" parent="S3rH2LV8QHZ5XTYs6tV--172" vertex="1">
          <mxGeometry y="87.93103448275863" width="32.30769230769231" height="25.862068965517242" as="geometry" />
        </mxCell>
        <mxCell id="S3rH2LV8QHZ5XTYs6tV--182" style="edgeStyle=none;shape=connector;rounded=0;orthogonalLoop=1;jettySize=auto;html=1;exitX=1;exitY=0.5;exitDx=0;exitDy=0;entryX=0;entryY=0.5;entryDx=0;entryDy=0;strokeColor=default;align=center;verticalAlign=middle;fontFamily=Helvetica;fontSize=11;fontColor=default;labelBackgroundColor=default;endArrow=classic;" parent="S3rH2LV8QHZ5XTYs6tV--172" source="S3rH2LV8QHZ5XTYs6tV--183" target="S3rH2LV8QHZ5XTYs6tV--193" edge="1">
          <mxGeometry relative="1" as="geometry" />
        </mxCell>
        <mxCell id="S3rH2LV8QHZ5XTYs6tV--183" value="" style="ellipse;whiteSpace=wrap;html=1;fillColor=#a20025;fontColor=#ffffff;strokeColor=#6F0000;" parent="S3rH2LV8QHZ5XTYs6tV--172" vertex="1">
          <mxGeometry x="56.80769230769231" width="32.30769230769231" height="25.862068965517242" as="geometry" />
        </mxCell>
        <mxCell id="S3rH2LV8QHZ5XTYs6tV--184" style="edgeStyle=none;shape=connector;rounded=0;orthogonalLoop=1;jettySize=auto;html=1;exitX=1;exitY=0.5;exitDx=0;exitDy=0;entryX=0;entryY=0.5;entryDx=0;entryDy=0;strokeColor=default;align=center;verticalAlign=middle;fontFamily=Helvetica;fontSize=11;fontColor=default;labelBackgroundColor=default;endArrow=classic;" parent="S3rH2LV8QHZ5XTYs6tV--172" source="S3rH2LV8QHZ5XTYs6tV--186" target="S3rH2LV8QHZ5XTYs6tV--193" edge="1">
          <mxGeometry relative="1" as="geometry" />
        </mxCell>
        <mxCell id="S3rH2LV8QHZ5XTYs6tV--185" style="edgeStyle=none;shape=connector;rounded=0;orthogonalLoop=1;jettySize=auto;html=1;exitX=1;exitY=0.5;exitDx=0;exitDy=0;entryX=0;entryY=0.5;entryDx=0;entryDy=0;strokeColor=default;align=center;verticalAlign=middle;fontFamily=Helvetica;fontSize=11;fontColor=default;labelBackgroundColor=default;endArrow=classic;" parent="S3rH2LV8QHZ5XTYs6tV--172" source="S3rH2LV8QHZ5XTYs6tV--186" target="S3rH2LV8QHZ5XTYs6tV--194" edge="1">
          <mxGeometry relative="1" as="geometry" />
        </mxCell>
        <mxCell id="S3rH2LV8QHZ5XTYs6tV--186" value="" style="ellipse;whiteSpace=wrap;html=1;fillColor=#a20025;fontColor=#ffffff;strokeColor=#6F0000;" parent="S3rH2LV8QHZ5XTYs6tV--172" vertex="1">
          <mxGeometry x="56.80769230769231" y="41.37931034482759" width="32.30769230769231" height="25.862068965517242" as="geometry" />
        </mxCell>
        <mxCell id="S3rH2LV8QHZ5XTYs6tV--187" style="edgeStyle=none;shape=connector;rounded=0;orthogonalLoop=1;jettySize=auto;html=1;exitX=1;exitY=0.5;exitDx=0;exitDy=0;entryX=0;entryY=0.5;entryDx=0;entryDy=0;strokeColor=default;align=center;verticalAlign=middle;fontFamily=Helvetica;fontSize=11;fontColor=default;labelBackgroundColor=default;endArrow=classic;" parent="S3rH2LV8QHZ5XTYs6tV--172" source="S3rH2LV8QHZ5XTYs6tV--189" target="S3rH2LV8QHZ5XTYs6tV--194" edge="1">
          <mxGeometry relative="1" as="geometry" />
        </mxCell>
        <mxCell id="S3rH2LV8QHZ5XTYs6tV--188" style="edgeStyle=none;shape=connector;rounded=0;orthogonalLoop=1;jettySize=auto;html=1;exitX=1;exitY=0.5;exitDx=0;exitDy=0;entryX=0;entryY=0.5;entryDx=0;entryDy=0;strokeColor=default;align=center;verticalAlign=middle;fontFamily=Helvetica;fontSize=11;fontColor=default;labelBackgroundColor=default;endArrow=classic;" parent="S3rH2LV8QHZ5XTYs6tV--172" source="S3rH2LV8QHZ5XTYs6tV--189" target="S3rH2LV8QHZ5XTYs6tV--193" edge="1">
          <mxGeometry relative="1" as="geometry" />
        </mxCell>
        <mxCell id="S3rH2LV8QHZ5XTYs6tV--189" value="" style="ellipse;whiteSpace=wrap;html=1;fillColor=#a20025;fontColor=#ffffff;strokeColor=#6F0000;" parent="S3rH2LV8QHZ5XTYs6tV--172" vertex="1">
          <mxGeometry x="56.80769230769231" y="82.75862068965517" width="32.30769230769231" height="25.862068965517242" as="geometry" />
        </mxCell>
        <mxCell id="S3rH2LV8QHZ5XTYs6tV--190" style="edgeStyle=none;shape=connector;rounded=0;orthogonalLoop=1;jettySize=auto;html=1;exitX=1;exitY=0.5;exitDx=0;exitDy=0;entryX=0;entryY=0.5;entryDx=0;entryDy=0;strokeColor=default;align=center;verticalAlign=middle;fontFamily=Helvetica;fontSize=11;fontColor=default;labelBackgroundColor=default;endArrow=classic;" parent="S3rH2LV8QHZ5XTYs6tV--172" source="S3rH2LV8QHZ5XTYs6tV--192" target="S3rH2LV8QHZ5XTYs6tV--194" edge="1">
          <mxGeometry relative="1" as="geometry" />
        </mxCell>
        <mxCell id="S3rH2LV8QHZ5XTYs6tV--191" style="edgeStyle=none;shape=connector;rounded=0;orthogonalLoop=1;jettySize=auto;html=1;exitX=1;exitY=0.5;exitDx=0;exitDy=0;entryX=0;entryY=0.5;entryDx=0;entryDy=0;strokeColor=default;align=center;verticalAlign=middle;fontFamily=Helvetica;fontSize=11;fontColor=default;labelBackgroundColor=default;endArrow=classic;" parent="S3rH2LV8QHZ5XTYs6tV--172" source="S3rH2LV8QHZ5XTYs6tV--192" target="S3rH2LV8QHZ5XTYs6tV--193" edge="1">
          <mxGeometry relative="1" as="geometry" />
        </mxCell>
        <mxCell id="S3rH2LV8QHZ5XTYs6tV--192" value="" style="ellipse;whiteSpace=wrap;html=1;fillColor=#a20025;fontColor=#ffffff;strokeColor=#6F0000;" parent="S3rH2LV8QHZ5XTYs6tV--172" vertex="1">
          <mxGeometry x="59.230769230769226" y="124.13793103448276" width="32.30769230769231" height="25.862068965517242" as="geometry" />
        </mxCell>
        <mxCell id="S3rH2LV8QHZ5XTYs6tV--193" value="" style="ellipse;whiteSpace=wrap;html=1;fillColor=#60a917;fontColor=#ffffff;strokeColor=#2D7600;" parent="S3rH2LV8QHZ5XTYs6tV--172" vertex="1">
          <mxGeometry x="107.6923076923077" y="46.55172413793104" width="32.30769230769231" height="25.862068965517242" as="geometry" />
        </mxCell>
        <mxCell id="S3rH2LV8QHZ5XTYs6tV--194" value="" style="ellipse;whiteSpace=wrap;html=1;fillColor=#60a917;fontColor=#ffffff;strokeColor=#2D7600;" parent="S3rH2LV8QHZ5XTYs6tV--172" vertex="1">
          <mxGeometry x="107.6923076923077" y="87.93103448275863" width="32.30769230769231" height="25.862068965517242" as="geometry" />
        </mxCell>
        <mxCell id="S3rH2LV8QHZ5XTYs6tV--195" style="edgeStyle=none;shape=connector;rounded=0;orthogonalLoop=1;jettySize=auto;html=1;exitX=1;exitY=0.5;exitDx=0;exitDy=0;entryX=0;entryY=0.6;entryDx=0;entryDy=0;entryPerimeter=0;strokeColor=default;align=center;verticalAlign=middle;fontFamily=Helvetica;fontSize=11;fontColor=default;labelBackgroundColor=default;endArrow=classic;" parent="S3rH2LV8QHZ5XTYs6tV--172" source="S3rH2LV8QHZ5XTYs6tV--183" target="S3rH2LV8QHZ5XTYs6tV--194" edge="1">
          <mxGeometry relative="1" as="geometry" />
        </mxCell>
        <mxCell id="S3rH2LV8QHZ5XTYs6tV--202" style="edgeStyle=none;shape=connector;rounded=0;orthogonalLoop=1;jettySize=auto;html=1;entryX=1.006;entryY=0.203;entryDx=0;entryDy=0;entryPerimeter=0;strokeColor=default;align=center;verticalAlign=middle;fontFamily=Helvetica;fontSize=11;fontColor=default;labelBackgroundColor=default;endArrow=classic;exitX=-0.002;exitY=0.338;exitDx=0;exitDy=0;exitPerimeter=0;strokeWidth=3;" parent="1" source="S3rH2LV8QHZ5XTYs6tV--1" target="S3rH2LV8QHZ5XTYs6tV--144" edge="1">
          <mxGeometry relative="1" as="geometry" />
        </mxCell>
        <mxCell id="S3rH2LV8QHZ5XTYs6tV--203" style="edgeStyle=none;shape=connector;rounded=0;orthogonalLoop=1;jettySize=auto;html=1;entryX=0.009;entryY=0.378;entryDx=0;entryDy=0;entryPerimeter=0;strokeColor=#006EAF;align=center;verticalAlign=middle;fontFamily=Helvetica;fontSize=11;fontColor=default;labelBackgroundColor=default;endArrow=classic;strokeWidth=3;fillColor=#1ba1e2;exitX=0.995;exitY=0.401;exitDx=0;exitDy=0;exitPerimeter=0;" parent="1" source="S3rH2LV8QHZ5XTYs6tV--144" target="S3rH2LV8QHZ5XTYs6tV--8" edge="1">
          <mxGeometry relative="1" as="geometry">
            <mxPoint x="150" y="320" as="sourcePoint" />
          </mxGeometry>
        </mxCell>
        <mxCell id="S3rH2LV8QHZ5XTYs6tV--205" style="edgeStyle=none;shape=connector;rounded=0;orthogonalLoop=1;jettySize=auto;html=1;entryX=0.004;entryY=0.441;entryDx=0;entryDy=0;entryPerimeter=0;strokeColor=#006EAF;align=center;verticalAlign=middle;fontFamily=Helvetica;fontSize=11;fontColor=default;labelBackgroundColor=default;endArrow=classic;exitX=1.004;exitY=0.599;exitDx=0;exitDy=0;exitPerimeter=0;strokeWidth=3;fillColor=#1ba1e2;" parent="1" source="S3rH2LV8QHZ5XTYs6tV--144" target="S3rH2LV8QHZ5XTYs6tV--15" edge="1">
          <mxGeometry relative="1" as="geometry" />
        </mxCell>
        <mxCell id="S3rH2LV8QHZ5XTYs6tV--206" style="edgeStyle=none;shape=connector;rounded=0;orthogonalLoop=1;jettySize=auto;html=1;exitX=-0.003;exitY=0.517;exitDx=0;exitDy=0;entryX=0.997;entryY=0.675;entryDx=0;entryDy=0;entryPerimeter=0;strokeColor=default;align=center;verticalAlign=middle;fontFamily=Helvetica;fontSize=11;fontColor=default;labelBackgroundColor=default;endArrow=classic;strokeWidth=3;exitPerimeter=0;" parent="1" source="S3rH2LV8QHZ5XTYs6tV--15" target="S3rH2LV8QHZ5XTYs6tV--144" edge="1">
          <mxGeometry relative="1" as="geometry" />
        </mxCell>
        <mxCell id="-kdukgbmFTFrDUBq5qtz-2" style="rounded=0;orthogonalLoop=1;jettySize=auto;html=1;exitX=-0.002;exitY=0.267;exitDx=0;exitDy=0;entryX=1.001;entryY=0.299;entryDx=0;entryDy=0;entryPerimeter=0;strokeWidth=3;exitPerimeter=0;fillColor=#f8cecc;strokeColor=#b85450;" parent="1" source="S3rH2LV8QHZ5XTYs6tV--145" target="S3rH2LV8QHZ5XTYs6tV--1" edge="1">
          <mxGeometry relative="1" as="geometry" />
        </mxCell>
        <mxCell id="-kdukgbmFTFrDUBq5qtz-4" style="rounded=0;orthogonalLoop=1;jettySize=auto;html=1;entryX=0.994;entryY=0.523;entryDx=0;entryDy=0;entryPerimeter=0;strokeWidth=3;exitX=-0.003;exitY=0.51;exitDx=0;exitDy=0;exitPerimeter=0;fillColor=#f8cecc;strokeColor=#b85450;" parent="1" source="S3rH2LV8QHZ5XTYs6tV--145" target="S3rH2LV8QHZ5XTYs6tV--8" edge="1">
          <mxGeometry relative="1" as="geometry" />
        </mxCell>
        <mxCell id="-kdukgbmFTFrDUBq5qtz-5" style="rounded=0;orthogonalLoop=1;jettySize=auto;html=1;entryX=0;entryY=0.75;entryDx=0;entryDy=0;strokeWidth=3;fillColor=#e1d5e7;strokeColor=#9673a6;" parent="1" source="S3rH2LV8QHZ5XTYs6tV--15" target="S3rH2LV8QHZ5XTYs6tV--145" edge="1">
          <mxGeometry relative="1" as="geometry" />
        </mxCell>
        <mxCell id="-kdukgbmFTFrDUBq5qtz-6" style="rounded=0;orthogonalLoop=1;jettySize=auto;html=1;exitX=0.002;exitY=0.759;exitDx=0;exitDy=0;entryX=1.001;entryY=0.3;entryDx=0;entryDy=0;entryPerimeter=0;strokeWidth=3;fillColor=#f8cecc;strokeColor=#b85450;exitPerimeter=0;" parent="1" source="S3rH2LV8QHZ5XTYs6tV--145" target="S3rH2LV8QHZ5XTYs6tV--15" edge="1">
          <mxGeometry relative="1" as="geometry" />
        </mxCell>
        <mxCell id="-kdukgbmFTFrDUBq5qtz-8" value="&lt;font style=&quot;font-size: 18px;&quot;&gt;本地模型&lt;/font&gt;" style="text;html=1;align=center;verticalAlign=middle;resizable=0;points=[];autosize=1;strokeColor=none;fillColor=none;fontFamily=Helvetica;fontSize=11;fontColor=default;labelBackgroundColor=default;" parent="1" vertex="1">
          <mxGeometry x="150" y="420" width="100" height="40" as="geometry" />
        </mxCell>
        <mxCell id="-kdukgbmFTFrDUBq5qtz-9" value="&lt;font style=&quot;font-size: 18px;&quot;&gt;本地模型&lt;/font&gt;" style="text;html=1;align=center;verticalAlign=middle;resizable=0;points=[];autosize=1;strokeColor=none;fillColor=none;fontFamily=Helvetica;fontSize=11;fontColor=default;labelBackgroundColor=default;" parent="1" vertex="1">
          <mxGeometry x="120" y="590" width="100" height="40" as="geometry" />
        </mxCell>
        <mxCell id="-kdukgbmFTFrDUBq5qtz-40" value="&lt;font style=&quot;font-size: 18px;&quot;&gt;全局模型&lt;/font&gt;" style="text;html=1;align=center;verticalAlign=middle;resizable=0;points=[];autosize=1;strokeColor=none;fillColor=none;fontFamily=Helvetica;fontSize=11;fontColor=default;labelBackgroundColor=default;" parent="1" vertex="1">
          <mxGeometry x="155" y="360" width="100" height="40" as="geometry" />
        </mxCell>
        <mxCell id="-kdukgbmFTFrDUBq5qtz-41" value="&lt;font style=&quot;font-size: 18px;&quot;&gt;全局模型&lt;/font&gt;" style="text;html=1;align=center;verticalAlign=middle;resizable=0;points=[];autosize=1;strokeColor=none;fillColor=none;fontFamily=Helvetica;fontSize=11;fontColor=default;labelBackgroundColor=default;" parent="1" vertex="1">
          <mxGeometry x="227.9" y="660" width="100" height="40" as="geometry" />
        </mxCell>
        <mxCell id="-kdukgbmFTFrDUBq5qtz-43" value="&lt;font style=&quot;font-size: 18px;&quot;&gt;&lt;b&gt;传输中止&lt;/b&gt;&lt;/font&gt;" style="text;html=1;align=center;verticalAlign=middle;resizable=0;points=[];autosize=1;strokeColor=none;fillColor=none;fontFamily=Helvetica;fontSize=11;fontColor=default;labelBackgroundColor=default;" parent="1" vertex="1">
          <mxGeometry x="755" y="95" width="100" height="40" as="geometry" />
        </mxCell>
        <mxCell id="-kdukgbmFTFrDUBq5qtz-44" value="&lt;span style=&quot;font-size: 18px;&quot;&gt;&lt;b&gt;传输中止&lt;/b&gt;&lt;/span&gt;" style="text;html=1;align=center;verticalAlign=middle;resizable=0;points=[];autosize=1;strokeColor=none;fillColor=none;fontFamily=Helvetica;fontSize=11;fontColor=default;labelBackgroundColor=default;" parent="1" vertex="1">
          <mxGeometry x="730" y="225" width="100" height="40" as="geometry" />
        </mxCell>
        <mxCell id="-kdukgbmFTFrDUBq5qtz-45" value="&lt;font style=&quot;font-size: 18px;&quot;&gt;前向传播激活值（粉碎数据）&lt;/font&gt;" style="text;html=1;align=center;verticalAlign=middle;resizable=0;points=[];autosize=1;strokeColor=none;fillColor=none;fontFamily=Helvetica;fontSize=11;fontColor=default;labelBackgroundColor=default;" parent="1" vertex="1">
          <mxGeometry x="680" y="403" width="260" height="40" as="geometry" />
        </mxCell>
        <mxCell id="-kdukgbmFTFrDUBq5qtz-46" value="&lt;font style=&quot;font-size: 18px;&quot;&gt;激活值的梯度&lt;/font&gt;" style="text;html=1;align=center;verticalAlign=middle;resizable=0;points=[];autosize=1;strokeColor=none;fillColor=none;fontFamily=Helvetica;fontSize=11;fontColor=default;labelBackgroundColor=default;" parent="1" vertex="1">
          <mxGeometry x="730" y="476" width="130" height="40" as="geometry" />
        </mxCell>
        <mxCell id="-kdukgbmFTFrDUBq5qtz-47" value="&lt;font style=&quot;font-size: 18px;&quot;&gt;前向传播激活值（粉碎数据）&lt;/font&gt;" style="text;html=1;align=center;verticalAlign=middle;resizable=0;points=[];autosize=1;strokeColor=none;fillColor=none;fontFamily=Helvetica;fontSize=11;fontColor=default;labelBackgroundColor=default;" parent="1" vertex="1">
          <mxGeometry x="675" y="639" width="260" height="40" as="geometry" />
        </mxCell>
        <mxCell id="-kdukgbmFTFrDUBq5qtz-48" value="&lt;font style=&quot;font-size: 18px;&quot;&gt;激活值的梯度&lt;/font&gt;" style="text;html=1;align=center;verticalAlign=middle;resizable=0;points=[];autosize=1;strokeColor=none;fillColor=none;fontFamily=Helvetica;fontSize=11;fontColor=default;labelBackgroundColor=default;" parent="1" vertex="1">
          <mxGeometry x="760" y="740" width="130" height="40" as="geometry" />
        </mxCell>
        <mxCell id="S3rH2LV8QHZ5XTYs6tV--145" value="" style="rounded=0;whiteSpace=wrap;html=1;fontFamily=Helvetica;fontSize=11;fontColor=default;labelBackgroundColor=default;fillColor=none;strokeColor=default;dashed=1;" parent="1" vertex="1">
          <mxGeometry x="930" y="128" width="290" height="720" as="geometry" />
        </mxCell>
        <mxCell id="S3rH2LV8QHZ5XTYs6tV--19" value="" style="group" parent="1" vertex="1" connectable="0">
          <mxGeometry x="995" y="548" width="170" height="190" as="geometry" />
        </mxCell>
        <mxCell id="S3rH2LV8QHZ5XTYs6tV--20" style="rounded=0;orthogonalLoop=1;jettySize=auto;html=1;exitX=1;exitY=0.5;exitDx=0;exitDy=0;" parent="S3rH2LV8QHZ5XTYs6tV--19" source="S3rH2LV8QHZ5XTYs6tV--24" target="S3rH2LV8QHZ5XTYs6tV--32" edge="1">
          <mxGeometry relative="1" as="geometry" />
        </mxCell>
        <mxCell id="S3rH2LV8QHZ5XTYs6tV--21" style="rounded=0;orthogonalLoop=1;jettySize=auto;html=1;exitX=1;exitY=0.5;exitDx=0;exitDy=0;entryX=0;entryY=0.5;entryDx=0;entryDy=0;" parent="S3rH2LV8QHZ5XTYs6tV--19" source="S3rH2LV8QHZ5XTYs6tV--24" target="S3rH2LV8QHZ5XTYs6tV--35" edge="1">
          <mxGeometry relative="1" as="geometry" />
        </mxCell>
        <mxCell id="S3rH2LV8QHZ5XTYs6tV--22" style="rounded=0;orthogonalLoop=1;jettySize=auto;html=1;exitX=1;exitY=0.5;exitDx=0;exitDy=0;entryX=0;entryY=0.5;entryDx=0;entryDy=0;" parent="S3rH2LV8QHZ5XTYs6tV--19" source="S3rH2LV8QHZ5XTYs6tV--24" target="S3rH2LV8QHZ5XTYs6tV--38" edge="1">
          <mxGeometry relative="1" as="geometry" />
        </mxCell>
        <mxCell id="S3rH2LV8QHZ5XTYs6tV--23" style="rounded=0;orthogonalLoop=1;jettySize=auto;html=1;exitX=1;exitY=0.5;exitDx=0;exitDy=0;entryX=0;entryY=0.5;entryDx=0;entryDy=0;" parent="S3rH2LV8QHZ5XTYs6tV--19" source="S3rH2LV8QHZ5XTYs6tV--24" target="S3rH2LV8QHZ5XTYs6tV--40" edge="1">
          <mxGeometry relative="1" as="geometry" />
        </mxCell>
        <mxCell id="S3rH2LV8QHZ5XTYs6tV--24" value="" style="ellipse;whiteSpace=wrap;html=1;fillColor=#dae8fc;strokeColor=#6c8ebf;" parent="S3rH2LV8QHZ5XTYs6tV--19" vertex="1">
          <mxGeometry y="26.206896551724135" width="39.23076923076923" height="32.758620689655174" as="geometry" />
        </mxCell>
        <mxCell id="S3rH2LV8QHZ5XTYs6tV--25" style="edgeStyle=none;shape=connector;rounded=0;orthogonalLoop=1;jettySize=auto;html=1;exitX=1;exitY=0.5;exitDx=0;exitDy=0;entryX=0;entryY=0.5;entryDx=0;entryDy=0;strokeColor=default;align=center;verticalAlign=middle;fontFamily=Helvetica;fontSize=11;fontColor=default;labelBackgroundColor=default;endArrow=classic;" parent="S3rH2LV8QHZ5XTYs6tV--19" source="S3rH2LV8QHZ5XTYs6tV--29" target="S3rH2LV8QHZ5XTYs6tV--32" edge="1">
          <mxGeometry relative="1" as="geometry" />
        </mxCell>
        <mxCell id="S3rH2LV8QHZ5XTYs6tV--26" style="edgeStyle=none;shape=connector;rounded=0;orthogonalLoop=1;jettySize=auto;html=1;exitX=1;exitY=0.5;exitDx=0;exitDy=0;entryX=0;entryY=0.5;entryDx=0;entryDy=0;strokeColor=default;align=center;verticalAlign=middle;fontFamily=Helvetica;fontSize=11;fontColor=default;labelBackgroundColor=default;endArrow=classic;" parent="S3rH2LV8QHZ5XTYs6tV--19" source="S3rH2LV8QHZ5XTYs6tV--29" target="S3rH2LV8QHZ5XTYs6tV--35" edge="1">
          <mxGeometry relative="1" as="geometry" />
        </mxCell>
        <mxCell id="S3rH2LV8QHZ5XTYs6tV--27" style="edgeStyle=none;shape=connector;rounded=0;orthogonalLoop=1;jettySize=auto;html=1;exitX=1;exitY=0.5;exitDx=0;exitDy=0;entryX=0;entryY=0.5;entryDx=0;entryDy=0;strokeColor=default;align=center;verticalAlign=middle;fontFamily=Helvetica;fontSize=11;fontColor=default;labelBackgroundColor=default;endArrow=classic;" parent="S3rH2LV8QHZ5XTYs6tV--19" source="S3rH2LV8QHZ5XTYs6tV--29" target="S3rH2LV8QHZ5XTYs6tV--38" edge="1">
          <mxGeometry relative="1" as="geometry" />
        </mxCell>
        <mxCell id="S3rH2LV8QHZ5XTYs6tV--28" style="edgeStyle=none;shape=connector;rounded=0;orthogonalLoop=1;jettySize=auto;html=1;exitX=1;exitY=0.5;exitDx=0;exitDy=0;entryX=0;entryY=0.5;entryDx=0;entryDy=0;strokeColor=default;align=center;verticalAlign=middle;fontFamily=Helvetica;fontSize=11;fontColor=default;labelBackgroundColor=default;endArrow=classic;" parent="S3rH2LV8QHZ5XTYs6tV--19" source="S3rH2LV8QHZ5XTYs6tV--29" target="S3rH2LV8QHZ5XTYs6tV--40" edge="1">
          <mxGeometry relative="1" as="geometry" />
        </mxCell>
        <mxCell id="S3rH2LV8QHZ5XTYs6tV--29" value="" style="ellipse;whiteSpace=wrap;html=1;fillColor=#dae8fc;strokeColor=#6c8ebf;" parent="S3rH2LV8QHZ5XTYs6tV--19" vertex="1">
          <mxGeometry y="85.17241379310344" width="39.23076923076923" height="32.758620689655174" as="geometry" />
        </mxCell>
        <mxCell id="S3rH2LV8QHZ5XTYs6tV--30" style="edgeStyle=none;shape=connector;rounded=0;orthogonalLoop=1;jettySize=auto;html=1;exitX=1;exitY=0.5;exitDx=0;exitDy=0;entryX=0;entryY=0.5;entryDx=0;entryDy=0;strokeColor=default;align=center;verticalAlign=middle;fontFamily=Helvetica;fontSize=11;fontColor=default;labelBackgroundColor=default;endArrow=classic;" parent="S3rH2LV8QHZ5XTYs6tV--19" source="S3rH2LV8QHZ5XTYs6tV--32" target="S3rH2LV8QHZ5XTYs6tV--41" edge="1">
          <mxGeometry relative="1" as="geometry" />
        </mxCell>
        <mxCell id="S3rH2LV8QHZ5XTYs6tV--31" style="edgeStyle=none;shape=connector;rounded=0;orthogonalLoop=1;jettySize=auto;html=1;exitX=1;exitY=0.5;exitDx=0;exitDy=0;entryX=0;entryY=0.5;entryDx=0;entryDy=0;strokeColor=default;align=center;verticalAlign=middle;fontFamily=Helvetica;fontSize=11;fontColor=default;labelBackgroundColor=default;endArrow=classic;" parent="S3rH2LV8QHZ5XTYs6tV--19" source="S3rH2LV8QHZ5XTYs6tV--32" target="S3rH2LV8QHZ5XTYs6tV--42" edge="1">
          <mxGeometry relative="1" as="geometry" />
        </mxCell>
        <mxCell id="S3rH2LV8QHZ5XTYs6tV--32" value="" style="ellipse;whiteSpace=wrap;html=1;fillColor=#fff2cc;strokeColor=#d6b656;" parent="S3rH2LV8QHZ5XTYs6tV--19" vertex="1">
          <mxGeometry x="65.38461538461539" width="39.23076923076923" height="32.758620689655174" as="geometry" />
        </mxCell>
        <mxCell id="S3rH2LV8QHZ5XTYs6tV--33" style="edgeStyle=none;shape=connector;rounded=0;orthogonalLoop=1;jettySize=auto;html=1;entryX=0;entryY=0.5;entryDx=0;entryDy=0;strokeColor=default;align=center;verticalAlign=middle;fontFamily=Helvetica;fontSize=11;fontColor=default;labelBackgroundColor=default;endArrow=classic;" parent="S3rH2LV8QHZ5XTYs6tV--19" source="S3rH2LV8QHZ5XTYs6tV--35" target="S3rH2LV8QHZ5XTYs6tV--41" edge="1">
          <mxGeometry relative="1" as="geometry" />
        </mxCell>
        <mxCell id="S3rH2LV8QHZ5XTYs6tV--34" style="edgeStyle=none;shape=connector;rounded=0;orthogonalLoop=1;jettySize=auto;html=1;exitX=1;exitY=0.5;exitDx=0;exitDy=0;entryX=0;entryY=0.5;entryDx=0;entryDy=0;strokeColor=default;align=center;verticalAlign=middle;fontFamily=Helvetica;fontSize=11;fontColor=default;labelBackgroundColor=default;endArrow=classic;" parent="S3rH2LV8QHZ5XTYs6tV--19" source="S3rH2LV8QHZ5XTYs6tV--35" target="S3rH2LV8QHZ5XTYs6tV--42" edge="1">
          <mxGeometry relative="1" as="geometry" />
        </mxCell>
        <mxCell id="S3rH2LV8QHZ5XTYs6tV--35" value="" style="ellipse;whiteSpace=wrap;html=1;fillColor=#fff2cc;strokeColor=#d6b656;" parent="S3rH2LV8QHZ5XTYs6tV--19" vertex="1">
          <mxGeometry x="65.38461538461539" y="52.41379310344827" width="39.23076923076923" height="32.758620689655174" as="geometry" />
        </mxCell>
        <mxCell id="S3rH2LV8QHZ5XTYs6tV--36" style="edgeStyle=none;shape=connector;rounded=0;orthogonalLoop=1;jettySize=auto;html=1;exitX=1;exitY=0.5;exitDx=0;exitDy=0;entryX=0;entryY=0.5;entryDx=0;entryDy=0;strokeColor=default;align=center;verticalAlign=middle;fontFamily=Helvetica;fontSize=11;fontColor=default;labelBackgroundColor=default;endArrow=classic;" parent="S3rH2LV8QHZ5XTYs6tV--19" source="S3rH2LV8QHZ5XTYs6tV--38" target="S3rH2LV8QHZ5XTYs6tV--41" edge="1">
          <mxGeometry relative="1" as="geometry" />
        </mxCell>
        <mxCell id="S3rH2LV8QHZ5XTYs6tV--37" style="edgeStyle=none;shape=connector;rounded=0;orthogonalLoop=1;jettySize=auto;html=1;exitX=1;exitY=0.5;exitDx=0;exitDy=0;entryX=0;entryY=0.5;entryDx=0;entryDy=0;strokeColor=default;align=center;verticalAlign=middle;fontFamily=Helvetica;fontSize=11;fontColor=default;labelBackgroundColor=default;endArrow=classic;" parent="S3rH2LV8QHZ5XTYs6tV--19" source="S3rH2LV8QHZ5XTYs6tV--38" target="S3rH2LV8QHZ5XTYs6tV--42" edge="1">
          <mxGeometry relative="1" as="geometry" />
        </mxCell>
        <mxCell id="S3rH2LV8QHZ5XTYs6tV--38" value="" style="ellipse;whiteSpace=wrap;html=1;fillColor=#fff2cc;strokeColor=#d6b656;" parent="S3rH2LV8QHZ5XTYs6tV--19" vertex="1">
          <mxGeometry x="65.38461538461539" y="104.82758620689654" width="39.23076923076923" height="32.758620689655174" as="geometry" />
        </mxCell>
        <mxCell id="S3rH2LV8QHZ5XTYs6tV--39" style="edgeStyle=none;shape=connector;rounded=0;orthogonalLoop=1;jettySize=auto;html=1;exitX=1;exitY=0.5;exitDx=0;exitDy=0;entryX=0;entryY=0.5;entryDx=0;entryDy=0;strokeColor=default;align=center;verticalAlign=middle;fontFamily=Helvetica;fontSize=11;fontColor=default;labelBackgroundColor=default;endArrow=classic;" parent="S3rH2LV8QHZ5XTYs6tV--19" source="S3rH2LV8QHZ5XTYs6tV--40" target="S3rH2LV8QHZ5XTYs6tV--42" edge="1">
          <mxGeometry relative="1" as="geometry" />
        </mxCell>
        <mxCell id="S3rH2LV8QHZ5XTYs6tV--40" value="" style="ellipse;whiteSpace=wrap;html=1;fillColor=#fff2cc;strokeColor=#d6b656;" parent="S3rH2LV8QHZ5XTYs6tV--19" vertex="1">
          <mxGeometry x="65.38461538461539" y="157.24137931034483" width="39.23076923076923" height="32.758620689655174" as="geometry" />
        </mxCell>
        <mxCell id="S3rH2LV8QHZ5XTYs6tV--41" value="" style="ellipse;whiteSpace=wrap;html=1;fillColor=#f8cecc;strokeColor=#b85450;" parent="S3rH2LV8QHZ5XTYs6tV--19" vertex="1">
          <mxGeometry x="130.76923076923077" y="52.41379310344827" width="39.23076923076923" height="32.758620689655174" as="geometry" />
        </mxCell>
        <mxCell id="S3rH2LV8QHZ5XTYs6tV--42" value="" style="ellipse;whiteSpace=wrap;html=1;fillColor=#f8cecc;strokeColor=#b85450;" parent="S3rH2LV8QHZ5XTYs6tV--19" vertex="1">
          <mxGeometry x="130.76923076923077" y="104.82758620689654" width="39.23076923076923" height="32.758620689655174" as="geometry" />
        </mxCell>
        <mxCell id="S3rH2LV8QHZ5XTYs6tV--43" style="edgeStyle=none;shape=connector;rounded=0;orthogonalLoop=1;jettySize=auto;html=1;exitX=1;exitY=0.5;exitDx=0;exitDy=0;entryX=0;entryY=0.5;entryDx=0;entryDy=0;strokeColor=default;align=center;verticalAlign=middle;fontFamily=Helvetica;fontSize=11;fontColor=default;labelBackgroundColor=default;endArrow=classic;" parent="S3rH2LV8QHZ5XTYs6tV--19" source="S3rH2LV8QHZ5XTYs6tV--47" target="S3rH2LV8QHZ5XTYs6tV--32" edge="1">
          <mxGeometry relative="1" as="geometry" />
        </mxCell>
        <mxCell id="S3rH2LV8QHZ5XTYs6tV--44" style="edgeStyle=none;shape=connector;rounded=0;orthogonalLoop=1;jettySize=auto;html=1;exitX=1;exitY=0.5;exitDx=0;exitDy=0;entryX=0;entryY=0.5;entryDx=0;entryDy=0;strokeColor=default;align=center;verticalAlign=middle;fontFamily=Helvetica;fontSize=11;fontColor=default;labelBackgroundColor=default;endArrow=classic;" parent="S3rH2LV8QHZ5XTYs6tV--19" source="S3rH2LV8QHZ5XTYs6tV--47" target="S3rH2LV8QHZ5XTYs6tV--35" edge="1">
          <mxGeometry relative="1" as="geometry" />
        </mxCell>
        <mxCell id="S3rH2LV8QHZ5XTYs6tV--45" style="edgeStyle=none;shape=connector;rounded=0;orthogonalLoop=1;jettySize=auto;html=1;exitX=1;exitY=0.5;exitDx=0;exitDy=0;entryX=0;entryY=0.5;entryDx=0;entryDy=0;strokeColor=default;align=center;verticalAlign=middle;fontFamily=Helvetica;fontSize=11;fontColor=default;labelBackgroundColor=default;endArrow=classic;" parent="S3rH2LV8QHZ5XTYs6tV--19" source="S3rH2LV8QHZ5XTYs6tV--47" target="S3rH2LV8QHZ5XTYs6tV--38" edge="1">
          <mxGeometry relative="1" as="geometry" />
        </mxCell>
        <mxCell id="S3rH2LV8QHZ5XTYs6tV--46" style="edgeStyle=none;shape=connector;rounded=0;orthogonalLoop=1;jettySize=auto;html=1;exitX=1;exitY=0.5;exitDx=0;exitDy=0;entryX=0;entryY=0.5;entryDx=0;entryDy=0;strokeColor=default;align=center;verticalAlign=middle;fontFamily=Helvetica;fontSize=11;fontColor=default;labelBackgroundColor=default;endArrow=classic;" parent="S3rH2LV8QHZ5XTYs6tV--19" source="S3rH2LV8QHZ5XTYs6tV--47" target="S3rH2LV8QHZ5XTYs6tV--40" edge="1">
          <mxGeometry relative="1" as="geometry" />
        </mxCell>
        <mxCell id="S3rH2LV8QHZ5XTYs6tV--47" value="" style="ellipse;whiteSpace=wrap;html=1;fillColor=#dae8fc;strokeColor=#6c8ebf;" parent="S3rH2LV8QHZ5XTYs6tV--19" vertex="1">
          <mxGeometry y="137.58620689655172" width="39.23076923076923" height="32.758620689655174" as="geometry" />
        </mxCell>
        <mxCell id="S3rH2LV8QHZ5XTYs6tV--48" style="edgeStyle=none;shape=connector;rounded=0;orthogonalLoop=1;jettySize=auto;html=1;exitX=1;exitY=0.5;exitDx=0;exitDy=0;entryX=0.05;entryY=0.38;entryDx=0;entryDy=0;entryPerimeter=0;strokeColor=default;align=center;verticalAlign=middle;fontFamily=Helvetica;fontSize=11;fontColor=default;labelBackgroundColor=default;endArrow=classic;" parent="S3rH2LV8QHZ5XTYs6tV--19" source="S3rH2LV8QHZ5XTYs6tV--40" target="S3rH2LV8QHZ5XTYs6tV--41" edge="1">
          <mxGeometry relative="1" as="geometry" />
        </mxCell>
        <mxCell id="S3rH2LV8QHZ5XTYs6tV--130" value="" style="image;aspect=fixed;perimeter=ellipsePerimeter;html=1;align=center;shadow=0;dashed=0;spacingTop=3;image=img/lib/active_directory/generic_server.svg;" parent="1" vertex="1">
          <mxGeometry x="1016.8" y="273.29" width="126.4" height="225.71" as="geometry" />
        </mxCell>
        <mxCell id="S3rH2LV8QHZ5XTYs6tV--131" value="&lt;font style=&quot;font-size: 20px;&quot;&gt;&lt;b&gt;主服务端（Main Server）&lt;/b&gt;&lt;/font&gt;" style="text;html=1;align=center;verticalAlign=middle;resizable=0;points=[];autosize=1;strokeColor=none;fillColor=none;fontFamily=Helvetica;fontSize=11;fontColor=default;labelBackgroundColor=default;" parent="1" vertex="1">
          <mxGeometry x="949.9999999999999" y="210" width="260" height="40" as="geometry" />
        </mxCell>
        <mxCell id="S3rH2LV8QHZ5XTYs6tV--136" value="&lt;font style=&quot;font-size: 20px;&quot;&gt;&lt;b&gt;服务端模型部分&lt;/b&gt;&lt;/font&gt;" style="text;html=1;align=center;verticalAlign=middle;resizable=0;points=[];autosize=1;strokeColor=none;fillColor=none;fontFamily=Helvetica;fontSize=11;fontColor=default;labelBackgroundColor=default;" parent="1" vertex="1">
          <mxGeometry x="1000" y="758" width="160" height="40" as="geometry" />
        </mxCell>
        <mxCell id="YG4ow8o5gnvYlA8YRpoR-1" value="" style="group" vertex="1" connectable="0" parent="1">
          <mxGeometry x="-210" y="288" width="340" height="320" as="geometry" />
        </mxCell>
        <mxCell id="S3rH2LV8QHZ5XTYs6tV--144" value="" style="rounded=0;whiteSpace=wrap;html=1;fontFamily=Helvetica;fontSize=11;fontColor=default;labelBackgroundColor=default;fillColor=none;strokeColor=default;dashed=1;" parent="YG4ow8o5gnvYlA8YRpoR-1" vertex="1">
          <mxGeometry x="-120" y="10" width="460" height="310" as="geometry" />
        </mxCell>
        <mxCell id="S3rH2LV8QHZ5XTYs6tV--137" value="" style="verticalLabelPosition=bottom;html=1;verticalAlign=top;strokeWidth=1;align=center;outlineConnect=0;dashed=0;outlineConnect=0;shape=mxgraph.aws3d.dataServer;strokeColor=#5E5E5E;aspect=fixed;fontFamily=Helvetica;fontSize=11;fontColor=default;labelBackgroundColor=default;" parent="YG4ow8o5gnvYlA8YRpoR-1" vertex="1">
          <mxGeometry x="125" y="52" width="123" height="106" as="geometry" />
        </mxCell>
        <mxCell id="-kdukgbmFTFrDUBq5qtz-11" value="" style="group" parent="YG4ow8o5gnvYlA8YRpoR-1" vertex="1" connectable="0">
          <mxGeometry x="160" y="165" width="140" height="150" as="geometry" />
        </mxCell>
        <mxCell id="-kdukgbmFTFrDUBq5qtz-12" style="rounded=0;orthogonalLoop=1;jettySize=auto;html=1;exitX=1;exitY=0.5;exitDx=0;exitDy=0;entryX=0;entryY=0.5;entryDx=0;entryDy=0;" parent="-kdukgbmFTFrDUBq5qtz-11" source="-kdukgbmFTFrDUBq5qtz-16" target="-kdukgbmFTFrDUBq5qtz-22" edge="1">
          <mxGeometry relative="1" as="geometry" />
        </mxCell>
        <mxCell id="-kdukgbmFTFrDUBq5qtz-13" style="edgeStyle=none;shape=connector;rounded=0;orthogonalLoop=1;jettySize=auto;html=1;exitX=1;exitY=0.5;exitDx=0;exitDy=0;entryX=0;entryY=0.5;entryDx=0;entryDy=0;strokeColor=default;align=center;verticalAlign=middle;fontFamily=Helvetica;fontSize=11;fontColor=default;labelBackgroundColor=default;endArrow=classic;" parent="-kdukgbmFTFrDUBq5qtz-11" source="-kdukgbmFTFrDUBq5qtz-16" target="-kdukgbmFTFrDUBq5qtz-25" edge="1">
          <mxGeometry relative="1" as="geometry" />
        </mxCell>
        <mxCell id="-kdukgbmFTFrDUBq5qtz-14" style="edgeStyle=none;shape=connector;rounded=0;orthogonalLoop=1;jettySize=auto;html=1;exitX=1;exitY=0.5;exitDx=0;exitDy=0;entryX=0;entryY=0.5;entryDx=0;entryDy=0;strokeColor=default;align=center;verticalAlign=middle;fontFamily=Helvetica;fontSize=11;fontColor=default;labelBackgroundColor=default;endArrow=classic;" parent="-kdukgbmFTFrDUBq5qtz-11" source="-kdukgbmFTFrDUBq5qtz-16" target="-kdukgbmFTFrDUBq5qtz-28" edge="1">
          <mxGeometry relative="1" as="geometry" />
        </mxCell>
        <mxCell id="-kdukgbmFTFrDUBq5qtz-15" style="edgeStyle=none;shape=connector;rounded=0;orthogonalLoop=1;jettySize=auto;html=1;exitX=1;exitY=0.5;exitDx=0;exitDy=0;entryX=0;entryY=0.5;entryDx=0;entryDy=0;strokeColor=default;align=center;verticalAlign=middle;fontFamily=Helvetica;fontSize=11;fontColor=default;labelBackgroundColor=default;endArrow=classic;" parent="-kdukgbmFTFrDUBq5qtz-11" source="-kdukgbmFTFrDUBq5qtz-16" target="-kdukgbmFTFrDUBq5qtz-31" edge="1">
          <mxGeometry relative="1" as="geometry" />
        </mxCell>
        <mxCell id="-kdukgbmFTFrDUBq5qtz-16" value="" style="ellipse;whiteSpace=wrap;html=1;fillColor=#f8cecc;strokeColor=#b85450;" parent="-kdukgbmFTFrDUBq5qtz-11" vertex="1">
          <mxGeometry y="46.55172413793104" width="32.30769230769231" height="25.862068965517242" as="geometry" />
        </mxCell>
        <mxCell id="-kdukgbmFTFrDUBq5qtz-17" style="edgeStyle=none;shape=connector;rounded=0;orthogonalLoop=1;jettySize=auto;html=1;exitX=1;exitY=0.5;exitDx=0;exitDy=0;entryX=0;entryY=0.5;entryDx=0;entryDy=0;strokeColor=default;align=center;verticalAlign=middle;fontFamily=Helvetica;fontSize=11;fontColor=default;labelBackgroundColor=default;endArrow=classic;" parent="-kdukgbmFTFrDUBq5qtz-11" source="-kdukgbmFTFrDUBq5qtz-20" target="-kdukgbmFTFrDUBq5qtz-22" edge="1">
          <mxGeometry relative="1" as="geometry" />
        </mxCell>
        <mxCell id="-kdukgbmFTFrDUBq5qtz-18" style="edgeStyle=none;shape=connector;rounded=0;orthogonalLoop=1;jettySize=auto;html=1;exitX=1;exitY=0.5;exitDx=0;exitDy=0;entryX=0;entryY=0.5;entryDx=0;entryDy=0;strokeColor=default;align=center;verticalAlign=middle;fontFamily=Helvetica;fontSize=11;fontColor=default;labelBackgroundColor=default;endArrow=classic;" parent="-kdukgbmFTFrDUBq5qtz-11" source="-kdukgbmFTFrDUBq5qtz-20" target="-kdukgbmFTFrDUBq5qtz-25" edge="1">
          <mxGeometry relative="1" as="geometry" />
        </mxCell>
        <mxCell id="-kdukgbmFTFrDUBq5qtz-19" style="edgeStyle=none;shape=connector;rounded=0;orthogonalLoop=1;jettySize=auto;html=1;exitX=1;exitY=0.5;exitDx=0;exitDy=0;entryX=0;entryY=0.5;entryDx=0;entryDy=0;strokeColor=default;align=center;verticalAlign=middle;fontFamily=Helvetica;fontSize=11;fontColor=default;labelBackgroundColor=default;endArrow=classic;" parent="-kdukgbmFTFrDUBq5qtz-11" source="-kdukgbmFTFrDUBq5qtz-20" target="-kdukgbmFTFrDUBq5qtz-31" edge="1">
          <mxGeometry relative="1" as="geometry" />
        </mxCell>
        <mxCell id="-kdukgbmFTFrDUBq5qtz-20" value="" style="ellipse;whiteSpace=wrap;html=1;fillColor=#f8cecc;strokeColor=#b85450;" parent="-kdukgbmFTFrDUBq5qtz-11" vertex="1">
          <mxGeometry y="87.93103448275863" width="32.30769230769231" height="25.862068965517242" as="geometry" />
        </mxCell>
        <mxCell id="-kdukgbmFTFrDUBq5qtz-21" style="edgeStyle=none;shape=connector;rounded=0;orthogonalLoop=1;jettySize=auto;html=1;exitX=1;exitY=0.5;exitDx=0;exitDy=0;entryX=0;entryY=0.5;entryDx=0;entryDy=0;strokeColor=default;align=center;verticalAlign=middle;fontFamily=Helvetica;fontSize=11;fontColor=default;labelBackgroundColor=default;endArrow=classic;" parent="-kdukgbmFTFrDUBq5qtz-11" source="-kdukgbmFTFrDUBq5qtz-22" target="-kdukgbmFTFrDUBq5qtz-32" edge="1">
          <mxGeometry relative="1" as="geometry" />
        </mxCell>
        <mxCell id="-kdukgbmFTFrDUBq5qtz-22" value="" style="ellipse;whiteSpace=wrap;html=1;fillColor=#a20025;fontColor=#ffffff;strokeColor=#6F0000;" parent="-kdukgbmFTFrDUBq5qtz-11" vertex="1">
          <mxGeometry x="56.80769230769231" width="32.30769230769231" height="25.862068965517242" as="geometry" />
        </mxCell>
        <mxCell id="-kdukgbmFTFrDUBq5qtz-23" style="edgeStyle=none;shape=connector;rounded=0;orthogonalLoop=1;jettySize=auto;html=1;exitX=1;exitY=0.5;exitDx=0;exitDy=0;entryX=0;entryY=0.5;entryDx=0;entryDy=0;strokeColor=default;align=center;verticalAlign=middle;fontFamily=Helvetica;fontSize=11;fontColor=default;labelBackgroundColor=default;endArrow=classic;" parent="-kdukgbmFTFrDUBq5qtz-11" source="-kdukgbmFTFrDUBq5qtz-25" target="-kdukgbmFTFrDUBq5qtz-32" edge="1">
          <mxGeometry relative="1" as="geometry" />
        </mxCell>
        <mxCell id="-kdukgbmFTFrDUBq5qtz-24" style="edgeStyle=none;shape=connector;rounded=0;orthogonalLoop=1;jettySize=auto;html=1;exitX=1;exitY=0.5;exitDx=0;exitDy=0;entryX=0;entryY=0.5;entryDx=0;entryDy=0;strokeColor=default;align=center;verticalAlign=middle;fontFamily=Helvetica;fontSize=11;fontColor=default;labelBackgroundColor=default;endArrow=classic;" parent="-kdukgbmFTFrDUBq5qtz-11" source="-kdukgbmFTFrDUBq5qtz-25" target="-kdukgbmFTFrDUBq5qtz-33" edge="1">
          <mxGeometry relative="1" as="geometry" />
        </mxCell>
        <mxCell id="-kdukgbmFTFrDUBq5qtz-25" value="" style="ellipse;whiteSpace=wrap;html=1;fillColor=#a20025;fontColor=#ffffff;strokeColor=#6F0000;" parent="-kdukgbmFTFrDUBq5qtz-11" vertex="1">
          <mxGeometry x="56.80769230769231" y="41.37931034482759" width="32.30769230769231" height="25.862068965517242" as="geometry" />
        </mxCell>
        <mxCell id="-kdukgbmFTFrDUBq5qtz-26" style="edgeStyle=none;shape=connector;rounded=0;orthogonalLoop=1;jettySize=auto;html=1;exitX=1;exitY=0.5;exitDx=0;exitDy=0;entryX=0;entryY=0.5;entryDx=0;entryDy=0;strokeColor=default;align=center;verticalAlign=middle;fontFamily=Helvetica;fontSize=11;fontColor=default;labelBackgroundColor=default;endArrow=classic;" parent="-kdukgbmFTFrDUBq5qtz-11" source="-kdukgbmFTFrDUBq5qtz-28" target="-kdukgbmFTFrDUBq5qtz-33" edge="1">
          <mxGeometry relative="1" as="geometry" />
        </mxCell>
        <mxCell id="-kdukgbmFTFrDUBq5qtz-27" style="edgeStyle=none;shape=connector;rounded=0;orthogonalLoop=1;jettySize=auto;html=1;exitX=1;exitY=0.5;exitDx=0;exitDy=0;entryX=0;entryY=0.5;entryDx=0;entryDy=0;strokeColor=default;align=center;verticalAlign=middle;fontFamily=Helvetica;fontSize=11;fontColor=default;labelBackgroundColor=default;endArrow=classic;" parent="-kdukgbmFTFrDUBq5qtz-11" source="-kdukgbmFTFrDUBq5qtz-28" target="-kdukgbmFTFrDUBq5qtz-32" edge="1">
          <mxGeometry relative="1" as="geometry" />
        </mxCell>
        <mxCell id="-kdukgbmFTFrDUBq5qtz-28" value="" style="ellipse;whiteSpace=wrap;html=1;fillColor=#a20025;fontColor=#ffffff;strokeColor=#6F0000;" parent="-kdukgbmFTFrDUBq5qtz-11" vertex="1">
          <mxGeometry x="56.80769230769231" y="82.75862068965517" width="32.30769230769231" height="25.862068965517242" as="geometry" />
        </mxCell>
        <mxCell id="-kdukgbmFTFrDUBq5qtz-29" style="edgeStyle=none;shape=connector;rounded=0;orthogonalLoop=1;jettySize=auto;html=1;exitX=1;exitY=0.5;exitDx=0;exitDy=0;entryX=0;entryY=0.5;entryDx=0;entryDy=0;strokeColor=default;align=center;verticalAlign=middle;fontFamily=Helvetica;fontSize=11;fontColor=default;labelBackgroundColor=default;endArrow=classic;" parent="-kdukgbmFTFrDUBq5qtz-11" source="-kdukgbmFTFrDUBq5qtz-31" target="-kdukgbmFTFrDUBq5qtz-33" edge="1">
          <mxGeometry relative="1" as="geometry" />
        </mxCell>
        <mxCell id="-kdukgbmFTFrDUBq5qtz-30" style="edgeStyle=none;shape=connector;rounded=0;orthogonalLoop=1;jettySize=auto;html=1;exitX=1;exitY=0.5;exitDx=0;exitDy=0;entryX=0;entryY=0.5;entryDx=0;entryDy=0;strokeColor=default;align=center;verticalAlign=middle;fontFamily=Helvetica;fontSize=11;fontColor=default;labelBackgroundColor=default;endArrow=classic;" parent="-kdukgbmFTFrDUBq5qtz-11" source="-kdukgbmFTFrDUBq5qtz-31" target="-kdukgbmFTFrDUBq5qtz-32" edge="1">
          <mxGeometry relative="1" as="geometry" />
        </mxCell>
        <mxCell id="-kdukgbmFTFrDUBq5qtz-31" value="" style="ellipse;whiteSpace=wrap;html=1;fillColor=#a20025;fontColor=#ffffff;strokeColor=#6F0000;" parent="-kdukgbmFTFrDUBq5qtz-11" vertex="1">
          <mxGeometry x="59.230769230769226" y="124.13793103448276" width="32.30769230769231" height="25.862068965517242" as="geometry" />
        </mxCell>
        <mxCell id="-kdukgbmFTFrDUBq5qtz-32" value="" style="ellipse;whiteSpace=wrap;html=1;fillColor=#60a917;fontColor=#ffffff;strokeColor=#2D7600;" parent="-kdukgbmFTFrDUBq5qtz-11" vertex="1">
          <mxGeometry x="107.6923076923077" y="46.55172413793104" width="32.30769230769231" height="25.862068965517242" as="geometry" />
        </mxCell>
        <mxCell id="-kdukgbmFTFrDUBq5qtz-33" value="" style="ellipse;whiteSpace=wrap;html=1;fillColor=#60a917;fontColor=#ffffff;strokeColor=#2D7600;" parent="-kdukgbmFTFrDUBq5qtz-11" vertex="1">
          <mxGeometry x="107.6923076923077" y="87.93103448275863" width="32.30769230769231" height="25.862068965517242" as="geometry" />
        </mxCell>
        <mxCell id="-kdukgbmFTFrDUBq5qtz-34" style="edgeStyle=none;shape=connector;rounded=0;orthogonalLoop=1;jettySize=auto;html=1;exitX=1;exitY=0.5;exitDx=0;exitDy=0;entryX=0;entryY=0.6;entryDx=0;entryDy=0;entryPerimeter=0;strokeColor=default;align=center;verticalAlign=middle;fontFamily=Helvetica;fontSize=11;fontColor=default;labelBackgroundColor=default;endArrow=classic;" parent="-kdukgbmFTFrDUBq5qtz-11" source="-kdukgbmFTFrDUBq5qtz-22" target="-kdukgbmFTFrDUBq5qtz-33" edge="1">
          <mxGeometry relative="1" as="geometry" />
        </mxCell>
        <mxCell id="-kdukgbmFTFrDUBq5qtz-35" value="&lt;font style=&quot;font-size: 18px;&quot;&gt;客户端全局模型&lt;/font&gt;" style="text;html=1;align=center;verticalAlign=middle;resizable=0;points=[];autosize=1;strokeColor=none;fillColor=none;fontFamily=Helvetica;fontSize=11;fontColor=default;labelBackgroundColor=default;" parent="YG4ow8o5gnvYlA8YRpoR-1" vertex="1">
          <mxGeometry x="10" y="245" width="150" height="40" as="geometry" />
        </mxCell>
        <mxCell id="-kdukgbmFTFrDUBq5qtz-36" style="edgeStyle=orthogonalEdgeStyle;rounded=0;orthogonalLoop=1;jettySize=auto;html=1;entryX=0.472;entryY=-0.018;entryDx=0;entryDy=0;entryPerimeter=0;strokeWidth=3;" parent="YG4ow8o5gnvYlA8YRpoR-1" source="S3rH2LV8QHZ5XTYs6tV--137" target="-kdukgbmFTFrDUBq5qtz-35" edge="1">
          <mxGeometry relative="1" as="geometry" />
        </mxCell>
        <mxCell id="-kdukgbmFTFrDUBq5qtz-38" value="&lt;b&gt;&lt;font style=&quot;font-size: 18px;&quot;&gt;聚合模型&lt;/font&gt;&lt;/b&gt;&lt;div&gt;&lt;b&gt;&lt;font style=&quot;font-size: 18px;&quot;&gt;对于离线设备，根据历史参数计算修正值&lt;/font&gt;&lt;/b&gt;&lt;/div&gt;" style="text;html=1;align=center;verticalAlign=middle;whiteSpace=wrap;rounded=0;" parent="YG4ow8o5gnvYlA8YRpoR-1" vertex="1">
          <mxGeometry x="-100" y="140" width="245" height="48" as="geometry" />
        </mxCell>
        <mxCell id="YG4ow8o5gnvYlA8YRpoR-66" value="" style="verticalLabelPosition=bottom;verticalAlign=top;html=1;shape=mxgraph.basic.x;fillColor=#e51400;strokeColor=default;fontColor=#ffffff;gradientColor=none;" vertex="1" parent="1">
          <mxGeometry x="769" y="150" width="58" height="55" as="geometry" />
        </mxCell>
        <mxCell id="YG4ow8o5gnvYlA8YRpoR-68" value="" style="verticalLabelPosition=bottom;verticalAlign=top;html=1;shape=mxgraph.basic.x;fillColor=#e51400;strokeColor=default;fontColor=#ffffff;gradientColor=none;" vertex="1" parent="1">
          <mxGeometry x="240" y="135" width="58" height="55" as="geometry" />
        </mxCell>
        <mxCell id="YG4ow8o5gnvYlA8YRpoR-70" value="&lt;font style=&quot;font-size: 18px;&quot;&gt;&lt;b&gt;传输中止&lt;/b&gt;&lt;/font&gt;" style="text;html=1;align=center;verticalAlign=middle;resizable=0;points=[];autosize=1;strokeColor=none;fillColor=none;fontFamily=Helvetica;fontSize=11;fontColor=default;labelBackgroundColor=default;" vertex="1" parent="1">
          <mxGeometry x="204" y="88" width="100" height="40" as="geometry" />
        </mxCell>
        <mxCell id="YG4ow8o5gnvYlA8YRpoR-71" value="&lt;span style=&quot;font-size: 18px;&quot;&gt;&lt;b&gt;传输中止&lt;/b&gt;&lt;/span&gt;" style="text;html=1;align=center;verticalAlign=middle;resizable=0;points=[];autosize=1;strokeColor=none;fillColor=none;fontFamily=Helvetica;fontSize=11;fontColor=default;labelBackgroundColor=default;" vertex="1" parent="1">
          <mxGeometry x="230" y="200" width="100" height="40" as="geometry" />
        </mxCell>
        <mxCell id="YG4ow8o5gnvYlA8YRpoR-73" style="rounded=0;orthogonalLoop=1;jettySize=auto;html=1;endArrow=none;endFill=1;jumpStyle=arc;jumpSize=10;fillColor=#fa6800;strokeColor=#C73500;strokeWidth=3;startFill=1;startArrow=classic;entryX=0;entryY=0.5;entryDx=0;entryDy=0;exitX=1;exitY=0.25;exitDx=0;exitDy=0;" edge="1" parent="1" source="YG4ow8o5gnvYlA8YRpoR-3" target="S3rH2LV8QHZ5XTYs6tV--1">
          <mxGeometry relative="1" as="geometry">
            <mxPoint x="250" y="778" as="sourcePoint" />
            <mxPoint x="220" y="690" as="targetPoint" />
          </mxGeometry>
        </mxCell>
        <mxCell id="YG4ow8o5gnvYlA8YRpoR-74" value="&lt;b&gt;&lt;font style=&quot;font-size: 18px; color: rgb(199, 53, 0);&quot;&gt;心跳包1&lt;/font&gt;&lt;/b&gt;&lt;div&gt;&lt;font color=&quot;#c73500&quot;&gt;&lt;span style=&quot;font-size: 18px;&quot;&gt;&lt;b&gt;(&lt;/b&gt;&lt;/span&gt;&lt;/font&gt;&lt;span style=&quot;background-color: transparent; font-size: 18px;&quot;&gt;&lt;font color=&quot;#c73500&quot;&gt;&lt;b&gt;超时&lt;/b&gt;&lt;/font&gt;&lt;/span&gt;&lt;b style=&quot;font-size: 18px; color: rgb(199, 53, 0); background-color: transparent;&quot;&gt;)&lt;/b&gt;&lt;/div&gt;" style="text;html=1;align=center;verticalAlign=middle;resizable=0;points=[];autosize=1;strokeColor=none;fillColor=none;" vertex="1" parent="1">
          <mxGeometry x="250" y="435" width="90" height="60" as="geometry" />
        </mxCell>
        <mxCell id="YG4ow8o5gnvYlA8YRpoR-78" value="&lt;font style=&quot;font-size: 20px;&quot;&gt;&lt;b&gt;客户端模型参数表&lt;/b&gt;&lt;/font&gt;" style="text;html=1;align=center;verticalAlign=middle;resizable=0;points=[];autosize=1;strokeColor=none;fillColor=none;fontFamily=Helvetica;fontSize=11;fontColor=default;labelBackgroundColor=default;" vertex="1" parent="1">
          <mxGeometry x="-185.0000000000001" y="-30" width="180" height="40" as="geometry" />
        </mxCell>
        <mxCell id="YG4ow8o5gnvYlA8YRpoR-79" value="客户端状态字典(省略中间序号客户端)" style="shape=table;startSize=30;container=1;collapsible=0;childLayout=tableLayout;strokeColor=default;fontSize=16;fontStyle=1" vertex="1" parent="1">
          <mxGeometry x="-295" y="21.39" width="400" height="230" as="geometry" />
        </mxCell>
        <mxCell id="YG4ow8o5gnvYlA8YRpoR-80" value="" style="shape=tableRow;horizontal=0;startSize=0;swimlaneHead=0;swimlaneBody=0;strokeColor=inherit;top=0;left=0;bottom=0;right=0;collapsible=0;dropTarget=0;fillColor=none;points=[[0,0.5],[1,0.5]];portConstraint=eastwest;fontSize=16;" vertex="1" parent="YG4ow8o5gnvYlA8YRpoR-79">
          <mxGeometry y="30" width="400" height="67" as="geometry" />
        </mxCell>
        <mxCell id="YG4ow8o5gnvYlA8YRpoR-81" value="&lt;b&gt;客户端序号&lt;/b&gt;" style="shape=partialRectangle;html=1;whiteSpace=wrap;connectable=0;strokeColor=inherit;overflow=hidden;fillColor=none;top=0;left=0;bottom=0;right=0;pointerEvents=1;fontSize=16;" vertex="1" parent="YG4ow8o5gnvYlA8YRpoR-80">
          <mxGeometry width="133" height="67" as="geometry">
            <mxRectangle width="133" height="67" as="alternateBounds" />
          </mxGeometry>
        </mxCell>
        <mxCell id="YG4ow8o5gnvYlA8YRpoR-82" value="&lt;b&gt;模型所属轮次数&lt;/b&gt;" style="shape=partialRectangle;html=1;whiteSpace=wrap;connectable=0;strokeColor=inherit;overflow=hidden;fillColor=none;top=0;left=0;bottom=0;right=0;pointerEvents=1;fontSize=16;" vertex="1" parent="YG4ow8o5gnvYlA8YRpoR-80">
          <mxGeometry x="133" width="134" height="67" as="geometry">
            <mxRectangle width="134" height="67" as="alternateBounds" />
          </mxGeometry>
        </mxCell>
        <mxCell id="YG4ow8o5gnvYlA8YRpoR-83" value="&lt;b&gt;模型参数字典&lt;/b&gt;" style="shape=partialRectangle;html=1;whiteSpace=wrap;connectable=0;strokeColor=inherit;overflow=hidden;fillColor=none;top=0;left=0;bottom=0;right=0;pointerEvents=1;fontSize=16;" vertex="1" parent="YG4ow8o5gnvYlA8YRpoR-80">
          <mxGeometry x="267" width="133" height="67" as="geometry">
            <mxRectangle width="133" height="67" as="alternateBounds" />
          </mxGeometry>
        </mxCell>
        <mxCell id="YG4ow8o5gnvYlA8YRpoR-84" value="" style="shape=tableRow;horizontal=0;startSize=0;swimlaneHead=0;swimlaneBody=0;strokeColor=inherit;top=0;left=0;bottom=0;right=0;collapsible=0;dropTarget=0;fillColor=none;points=[[0,0.5],[1,0.5]];portConstraint=eastwest;fontSize=16;" vertex="1" parent="YG4ow8o5gnvYlA8YRpoR-79">
          <mxGeometry y="97" width="400" height="66" as="geometry" />
        </mxCell>
        <mxCell id="YG4ow8o5gnvYlA8YRpoR-85" value="1" style="shape=partialRectangle;html=1;whiteSpace=wrap;connectable=0;strokeColor=inherit;overflow=hidden;fillColor=none;top=0;left=0;bottom=0;right=0;pointerEvents=1;fontSize=16;" vertex="1" parent="YG4ow8o5gnvYlA8YRpoR-84">
          <mxGeometry width="133" height="66" as="geometry">
            <mxRectangle width="133" height="66" as="alternateBounds" />
          </mxGeometry>
        </mxCell>
        <mxCell id="YG4ow8o5gnvYlA8YRpoR-86" value="t&lt;sub&gt;1&lt;/sub&gt;" style="shape=partialRectangle;html=1;whiteSpace=wrap;connectable=0;strokeColor=inherit;overflow=hidden;fillColor=none;top=0;left=0;bottom=0;right=0;pointerEvents=1;fontSize=16;" vertex="1" parent="YG4ow8o5gnvYlA8YRpoR-84">
          <mxGeometry x="133" width="134" height="66" as="geometry">
            <mxRectangle width="134" height="66" as="alternateBounds" />
          </mxGeometry>
        </mxCell>
        <mxCell id="YG4ow8o5gnvYlA8YRpoR-87" value="map₁" style="shape=partialRectangle;html=1;whiteSpace=wrap;connectable=0;strokeColor=inherit;overflow=hidden;fillColor=none;top=0;left=0;bottom=0;right=0;pointerEvents=1;fontSize=16;" vertex="1" parent="YG4ow8o5gnvYlA8YRpoR-84">
          <mxGeometry x="267" width="133" height="66" as="geometry">
            <mxRectangle width="133" height="66" as="alternateBounds" />
          </mxGeometry>
        </mxCell>
        <mxCell id="YG4ow8o5gnvYlA8YRpoR-88" value="" style="shape=tableRow;horizontal=0;startSize=0;swimlaneHead=0;swimlaneBody=0;strokeColor=inherit;top=0;left=0;bottom=0;right=0;collapsible=0;dropTarget=0;fillColor=none;points=[[0,0.5],[1,0.5]];portConstraint=eastwest;fontSize=16;" vertex="1" parent="YG4ow8o5gnvYlA8YRpoR-79">
          <mxGeometry y="163" width="400" height="67" as="geometry" />
        </mxCell>
        <mxCell id="YG4ow8o5gnvYlA8YRpoR-89" value="n" style="shape=partialRectangle;html=1;whiteSpace=wrap;connectable=0;strokeColor=inherit;overflow=hidden;fillColor=none;top=0;left=0;bottom=0;right=0;pointerEvents=1;fontSize=16;" vertex="1" parent="YG4ow8o5gnvYlA8YRpoR-88">
          <mxGeometry width="133" height="67" as="geometry">
            <mxRectangle width="133" height="67" as="alternateBounds" />
          </mxGeometry>
        </mxCell>
        <mxCell id="YG4ow8o5gnvYlA8YRpoR-90" value="t&lt;sub&gt;n&lt;/sub&gt;" style="shape=partialRectangle;html=1;whiteSpace=wrap;connectable=0;strokeColor=inherit;overflow=hidden;fillColor=none;top=0;left=0;bottom=0;right=0;pointerEvents=1;fontSize=16;" vertex="1" parent="YG4ow8o5gnvYlA8YRpoR-88">
          <mxGeometry x="133" width="134" height="67" as="geometry">
            <mxRectangle width="134" height="67" as="alternateBounds" />
          </mxGeometry>
        </mxCell>
        <mxCell id="YG4ow8o5gnvYlA8YRpoR-91" value="map&lt;sub&gt;n&lt;/sub&gt;" style="shape=partialRectangle;html=1;whiteSpace=wrap;connectable=0;strokeColor=inherit;overflow=hidden;fillColor=none;top=0;left=0;bottom=0;right=0;pointerEvents=1;fontSize=16;" vertex="1" parent="YG4ow8o5gnvYlA8YRpoR-88">
          <mxGeometry x="267" width="133" height="67" as="geometry">
            <mxRectangle width="133" height="67" as="alternateBounds" />
          </mxGeometry>
        </mxCell>
        <mxCell id="YG4ow8o5gnvYlA8YRpoR-100" style="rounded=0;orthogonalLoop=1;jettySize=auto;html=1;endArrow=none;endFill=1;jumpStyle=arc;jumpSize=10;fillColor=#fa6800;strokeColor=#C73500;strokeWidth=3;startFill=1;startArrow=classic;entryX=0;entryY=0.5;entryDx=0;entryDy=0;exitX=1;exitY=0.5;exitDx=0;exitDy=0;" edge="1" parent="1" source="YG4ow8o5gnvYlA8YRpoR-3" target="S3rH2LV8QHZ5XTYs6tV--8">
          <mxGeometry relative="1" as="geometry">
            <mxPoint x="200" y="708" as="sourcePoint" />
            <mxPoint x="360" y="140" as="targetPoint" />
          </mxGeometry>
        </mxCell>
        <mxCell id="YG4ow8o5gnvYlA8YRpoR-101" value="" style="group" vertex="1" connectable="0" parent="1">
          <mxGeometry x="-300" y="679" width="470" height="320" as="geometry" />
        </mxCell>
        <mxCell id="YG4ow8o5gnvYlA8YRpoR-3" value="" style="rounded=0;whiteSpace=wrap;html=1;fontFamily=Helvetica;fontSize=11;fontColor=default;labelBackgroundColor=default;fillColor=none;strokeColor=default;dashed=1;" vertex="1" parent="YG4ow8o5gnvYlA8YRpoR-101">
          <mxGeometry width="470" height="320" as="geometry" />
        </mxCell>
        <mxCell id="YG4ow8o5gnvYlA8YRpoR-5" value="&lt;font style=&quot;font-size: 20px;&quot;&gt;&lt;b&gt;客户端心跳监测器&lt;/b&gt;&lt;/font&gt;" style="text;html=1;align=center;verticalAlign=middle;resizable=0;points=[];autosize=1;strokeColor=none;fillColor=none;fontFamily=Helvetica;fontSize=11;fontColor=default;labelBackgroundColor=default;" vertex="1" parent="YG4ow8o5gnvYlA8YRpoR-101">
          <mxGeometry x="144.9999999999999" y="10" width="180" height="40" as="geometry" />
        </mxCell>
        <mxCell id="YG4ow8o5gnvYlA8YRpoR-33" value="客户端状态字典(省略中间序号客户端)" style="shape=table;startSize=30;container=1;collapsible=0;childLayout=tableLayout;strokeColor=default;fontSize=16;fontStyle=1" vertex="1" parent="YG4ow8o5gnvYlA8YRpoR-101">
          <mxGeometry x="35" y="61" width="400" height="230" as="geometry" />
        </mxCell>
        <mxCell id="YG4ow8o5gnvYlA8YRpoR-34" value="" style="shape=tableRow;horizontal=0;startSize=0;swimlaneHead=0;swimlaneBody=0;strokeColor=inherit;top=0;left=0;bottom=0;right=0;collapsible=0;dropTarget=0;fillColor=none;points=[[0,0.5],[1,0.5]];portConstraint=eastwest;fontSize=16;" vertex="1" parent="YG4ow8o5gnvYlA8YRpoR-33">
          <mxGeometry y="30" width="400" height="67" as="geometry" />
        </mxCell>
        <mxCell id="YG4ow8o5gnvYlA8YRpoR-35" value="&lt;b&gt;客户端序号&lt;/b&gt;" style="shape=partialRectangle;html=1;whiteSpace=wrap;connectable=0;strokeColor=inherit;overflow=hidden;fillColor=none;top=0;left=0;bottom=0;right=0;pointerEvents=1;fontSize=16;" vertex="1" parent="YG4ow8o5gnvYlA8YRpoR-34">
          <mxGeometry width="133" height="67" as="geometry">
            <mxRectangle width="133" height="67" as="alternateBounds" />
          </mxGeometry>
        </mxCell>
        <mxCell id="YG4ow8o5gnvYlA8YRpoR-36" value="&lt;b&gt;客户端状态&lt;/b&gt;" style="shape=partialRectangle;html=1;whiteSpace=wrap;connectable=0;strokeColor=inherit;overflow=hidden;fillColor=none;top=0;left=0;bottom=0;right=0;pointerEvents=1;fontSize=16;" vertex="1" parent="YG4ow8o5gnvYlA8YRpoR-34">
          <mxGeometry x="133" width="134" height="67" as="geometry">
            <mxRectangle width="134" height="67" as="alternateBounds" />
          </mxGeometry>
        </mxCell>
        <mxCell id="YG4ow8o5gnvYlA8YRpoR-37" value="&lt;b&gt;最近心跳时间&lt;/b&gt;" style="shape=partialRectangle;html=1;whiteSpace=wrap;connectable=0;strokeColor=inherit;overflow=hidden;fillColor=none;top=0;left=0;bottom=0;right=0;pointerEvents=1;fontSize=16;" vertex="1" parent="YG4ow8o5gnvYlA8YRpoR-34">
          <mxGeometry x="267" width="133" height="67" as="geometry">
            <mxRectangle width="133" height="67" as="alternateBounds" />
          </mxGeometry>
        </mxCell>
        <mxCell id="YG4ow8o5gnvYlA8YRpoR-38" value="" style="shape=tableRow;horizontal=0;startSize=0;swimlaneHead=0;swimlaneBody=0;strokeColor=inherit;top=0;left=0;bottom=0;right=0;collapsible=0;dropTarget=0;fillColor=none;points=[[0,0.5],[1,0.5]];portConstraint=eastwest;fontSize=16;" vertex="1" parent="YG4ow8o5gnvYlA8YRpoR-33">
          <mxGeometry y="97" width="400" height="66" as="geometry" />
        </mxCell>
        <mxCell id="YG4ow8o5gnvYlA8YRpoR-39" value="1" style="shape=partialRectangle;html=1;whiteSpace=wrap;connectable=0;strokeColor=inherit;overflow=hidden;fillColor=none;top=0;left=0;bottom=0;right=0;pointerEvents=1;fontSize=16;" vertex="1" parent="YG4ow8o5gnvYlA8YRpoR-38">
          <mxGeometry width="133" height="66" as="geometry">
            <mxRectangle width="133" height="66" as="alternateBounds" />
          </mxGeometry>
        </mxCell>
        <mxCell id="YG4ow8o5gnvYlA8YRpoR-40" value="离线" style="shape=partialRectangle;html=1;whiteSpace=wrap;connectable=0;strokeColor=inherit;overflow=hidden;fillColor=none;top=0;left=0;bottom=0;right=0;pointerEvents=1;fontSize=16;" vertex="1" parent="YG4ow8o5gnvYlA8YRpoR-38">
          <mxGeometry x="133" width="134" height="66" as="geometry">
            <mxRectangle width="134" height="66" as="alternateBounds" />
          </mxGeometry>
        </mxCell>
        <mxCell id="YG4ow8o5gnvYlA8YRpoR-41" value="yyyy-MM-dd HH:mm:ss" style="shape=partialRectangle;html=1;whiteSpace=wrap;connectable=0;strokeColor=inherit;overflow=hidden;fillColor=none;top=0;left=0;bottom=0;right=0;pointerEvents=1;fontSize=16;" vertex="1" parent="YG4ow8o5gnvYlA8YRpoR-38">
          <mxGeometry x="267" width="133" height="66" as="geometry">
            <mxRectangle width="133" height="66" as="alternateBounds" />
          </mxGeometry>
        </mxCell>
        <mxCell id="YG4ow8o5gnvYlA8YRpoR-42" value="" style="shape=tableRow;horizontal=0;startSize=0;swimlaneHead=0;swimlaneBody=0;strokeColor=inherit;top=0;left=0;bottom=0;right=0;collapsible=0;dropTarget=0;fillColor=none;points=[[0,0.5],[1,0.5]];portConstraint=eastwest;fontSize=16;" vertex="1" parent="YG4ow8o5gnvYlA8YRpoR-33">
          <mxGeometry y="163" width="400" height="67" as="geometry" />
        </mxCell>
        <mxCell id="YG4ow8o5gnvYlA8YRpoR-43" value="n" style="shape=partialRectangle;html=1;whiteSpace=wrap;connectable=0;strokeColor=inherit;overflow=hidden;fillColor=none;top=0;left=0;bottom=0;right=0;pointerEvents=1;fontSize=16;" vertex="1" parent="YG4ow8o5gnvYlA8YRpoR-42">
          <mxGeometry width="133" height="67" as="geometry">
            <mxRectangle width="133" height="67" as="alternateBounds" />
          </mxGeometry>
        </mxCell>
        <mxCell id="YG4ow8o5gnvYlA8YRpoR-44" value="在线" style="shape=partialRectangle;html=1;whiteSpace=wrap;connectable=0;strokeColor=inherit;overflow=hidden;fillColor=none;top=0;left=0;bottom=0;right=0;pointerEvents=1;fontSize=16;" vertex="1" parent="YG4ow8o5gnvYlA8YRpoR-42">
          <mxGeometry x="133" width="134" height="67" as="geometry">
            <mxRectangle width="134" height="67" as="alternateBounds" />
          </mxGeometry>
        </mxCell>
        <mxCell id="YG4ow8o5gnvYlA8YRpoR-45" value="yyyy-MM-dd HH:mm:ss" style="shape=partialRectangle;html=1;whiteSpace=wrap;connectable=0;strokeColor=inherit;overflow=hidden;fillColor=none;top=0;left=0;bottom=0;right=0;pointerEvents=1;fontSize=16;" vertex="1" parent="YG4ow8o5gnvYlA8YRpoR-42">
          <mxGeometry x="267" width="133" height="67" as="geometry">
            <mxRectangle width="133" height="67" as="alternateBounds" />
          </mxGeometry>
        </mxCell>
        <mxCell id="YG4ow8o5gnvYlA8YRpoR-102" value="" style="rounded=0;whiteSpace=wrap;html=1;fontFamily=Helvetica;fontSize=11;fontColor=default;labelBackgroundColor=default;fillColor=none;strokeColor=default;dashed=1;" vertex="1" parent="1">
          <mxGeometry x="-330" y="-35" width="460" height="305" as="geometry" />
        </mxCell>
        <mxCell id="S3rH2LV8QHZ5XTYs6tV--138" value="&lt;font style=&quot;font-size: 20px;&quot;&gt;&lt;b&gt;联邦学习服务端（Fed Server）&lt;/b&gt;&lt;/font&gt;" style="text;html=1;align=center;verticalAlign=middle;resizable=0;points=[];autosize=1;strokeColor=none;fillColor=none;fontFamily=Helvetica;fontSize=11;fontColor=default;labelBackgroundColor=default;" parent="1" vertex="1">
          <mxGeometry x="-250.0000000000001" y="-75" width="310" height="40" as="geometry" />
        </mxCell>
        <mxCell id="YG4ow8o5gnvYlA8YRpoR-103" value="&lt;b&gt;&lt;font style=&quot;font-size: 18px; color: rgb(199, 53, 0);&quot;&gt;心跳包2&lt;/font&gt;&lt;/b&gt;" style="text;html=1;align=center;verticalAlign=middle;resizable=0;points=[];autosize=1;strokeColor=none;fillColor=none;" vertex="1" parent="1">
          <mxGeometry x="265" y="598" width="90" height="40" as="geometry" />
        </mxCell>
        <mxCell id="YG4ow8o5gnvYlA8YRpoR-104" value="" style="verticalLabelPosition=bottom;verticalAlign=top;html=1;shape=mxgraph.basic.x;fillColor=#e51400;strokeColor=default;fontColor=#ffffff;gradientColor=none;" vertex="1" parent="1">
          <mxGeometry x="210" y="476" width="58" height="55" as="geometry" />
        </mxCell>
        <mxCell id="YG4ow8o5gnvYlA8YRpoR-107" style="rounded=0;orthogonalLoop=1;jettySize=auto;html=1;endArrow=none;endFill=1;jumpStyle=arc;jumpSize=10;fillColor=#fa6800;strokeColor=#C73500;strokeWidth=3;startFill=1;startArrow=classic;entryX=-0.01;entryY=0.647;entryDx=0;entryDy=0;exitX=1.004;exitY=0.699;exitDx=0;exitDy=0;entryPerimeter=0;exitPerimeter=0;" edge="1" parent="1" source="YG4ow8o5gnvYlA8YRpoR-3" target="S3rH2LV8QHZ5XTYs6tV--15">
          <mxGeometry relative="1" as="geometry">
            <mxPoint x="180" y="849" as="sourcePoint" />
            <mxPoint x="360" y="441" as="targetPoint" />
          </mxGeometry>
        </mxCell>
        <mxCell id="YG4ow8o5gnvYlA8YRpoR-108" value="&lt;b&gt;&lt;font style=&quot;font-size: 18px; color: rgb(199, 53, 0);&quot;&gt;心跳包n&lt;/font&gt;&lt;/b&gt;" style="text;html=1;align=center;verticalAlign=middle;resizable=0;points=[];autosize=1;strokeColor=none;fillColor=none;" vertex="1" parent="1">
          <mxGeometry x="220" y="890" width="90" height="40" as="geometry" />
        </mxCell>
      </root>
    </mxGraphModel>
  </diagram>
</mxfile>
